<?xml version="1.0" encoding="utf-8"?>
<!-- Generator: Adobe Illustrator 23.0.1, SVG Export Plug-In . SVG Version: 6.00 Build 0)  -->
<svg version="1.1" id="Layer_1" xmlns="http://www.w3.org/2000/svg" xmlns:xlink="http://www.w3.org/1999/xlink" x="0px" y="0px"
	 viewBox="0 0 243 225" style="enable-background:new 0 0 243 225;" xml:space="preserve">
<style type="text/css">
	.st0{fill-rule:evenodd;clip-rule:evenodd;fill:#4F2C1D;}
</style>
<g>
	<path class="st0" d="M95.81,161.03c-0.78,2.21-3.83,3.22-6.47,2.23c0.42-0.43,0.03-0.56,0-1.12
		C91.61,162.54,93.89,162.08,95.81,161.03z"/>
	<path class="st0" d="M126.17,164.61c-1.18,2.84-6.1,4.18-9.82,4.02c-1.23-0.06-2.97-0.2-2.9-1.56
		C118.21,167.36,122.75,166.31,126.17,164.61z"/>
	<g>
		<path class="st0" d="M147.38,23.74c-1.08,0.68-1.75-0.7-2.46-1.12c-3.5-1.12-8.03-3.68-12.5-4.24c-5.24-0.66-9.16,1.32-13.17,2.01
			c-1.15,0.65-2.79,1.7-4.02,1.56c4.12-2.78,11.2-7.75,18.53-5.36c3.95,1.29,8.48,2.37,11.83,4.24
			C146,21.89,147.73,22.65,147.38,23.74z"/>
		<path class="st0" d="M108.31,24.41c-0.91,1.25-2.51,0.12-3.57,0c-10.52-1.18-17.38,5.22-24.11,9.82c0.68-2.51,3.86-4.12,6.25-6.03
			c4.16-3.32,8.77-6.02,15.85-5.8C104.79,22.46,106.87,23.23,108.31,24.41z"/>
		<path class="st0" d="M143.81,37.36c-1.49,0.57-2.64-1.01-4.02-1.56c-5.69-2.28-14.75-2.26-19.42,2.01
			c-1.26,1.15-1.59,2.52-3.35,3.35c0.07-1.83,1.63-3.78,3.13-5.13c4.99-4.53,14.69-4.32,20.76-1.79
			C142.2,34.77,144.39,36.17,143.81,37.36z"/>
		<path class="st0" d="M186.45,40.93c-1.14-3.63-5.18-4.34-8.26-6.03C180.83,33.85,190.47,37.56,186.45,40.93z"/>
		<path class="st0" d="M172.61,35.35c2.06-0.09,5.55,1,7.37,2.01c1.42,0.79,2.63,1.54,4.02,2.68c1.12,0.92,2.46,3.3,0.45,4.91
			c-1.31-5.46-6.32-7.22-11.61-8.71C172.65,36.04,172.59,35.74,172.61,35.35z"/>
		<path class="st0" d="M59.87,36.69c-0.37,1.69-2.23,1.95-3.35,2.9c-1.25,1.07-1.91,2.41-3.13,3.57c-0.41,2.2-2.12,4.96-2.01,7.37
			c0.06,1.19,1.32,1.96,0.45,2.9c-1.17,0.05-1.45-0.78-2.01-1.34c0.24-5.34,2.17-9.95,4.91-12.95
			C55.82,37.95,57.75,36.15,59.87,36.69z"/>
		<path class="st0" d="M50.49,38.92c0.08,1.66-1.65,2.19-2.23,3.35c-2.14,4.21-0.86,8.88-1.79,13.62c-1.97-2.05-1.06-7.4-1.12-9.6
			c1.09-2.33,1.79-5.06,3.35-6.92C49.19,39.11,49.62,38.79,50.49,38.92z"/>
		<path class="st0" d="M110.32,41.15c-6.51-0.97-12.83-0.36-16.3,4.46c-0.19,1.3,0.34,2.32,0,3.13c-2.58-1.25-0.58-4.97,0.67-6.25
			c2.9-1.96,8.84-4.11,13.4-3.35C108.94,39.29,110.58,39.6,110.32,41.15z"/>
		<path class="st0" d="M154.3,46.73c0.55,3.33-3.21,4.69-4.91,3.13C149.01,46.95,152.1,45.63,154.3,46.73z M150.73,49.41
			c1.6,0.11,1.85-1.12,2.68-1.79C152.07,46.95,151.11,48.4,150.73,49.41z"/>
		<path class="st0" d="M137.56,46.73c0.52,2.32-2.38,6.37-5.58,4.91C133.09,49.38,133.95,45.78,137.56,46.73z M133.98,50.53
			c1.35-0.36,2.53-2.08,2.46-3.13C135.43,48.25,134.09,48.77,133.98,50.53z"/>
		<path class="st0" d="M214.35,71.51c0.52-2.79,1.65-4.14,1.34-6.92c-0.87-7.73-9.3-12.91-16.74-14.51
			c3.34-2.74,10.17,1.64,12.95,4.46c2.47,2.51,4.98,5.27,5.36,9.38C217.5,66.56,216.8,70.06,214.35,71.51z"/>
		<path class="st0" d="M90.67,53.43c-3-1.42-8.57-2.32-12.73-1.79c-1.98,0.26-3.9,1.35-4.69,2.9c0.45,2.74,4.72,3.83,3.8,6.47
			c-1.52-0.35-5.73-3.57-5.8-5.8c-0.07-2.02,2.46-4.29,4.91-5.13c2.73-0.94,6-0.38,8.93-0.22C87.66,49.99,91.21,50.85,90.67,53.43z"
			/>
		<path class="st0" d="M124.38,54.99c-1.93-2.5,2.84-6.59,3.8-3.79C128.77,52.92,126.19,54.85,124.38,54.99z M125.5,53.21
			c0.86-0.33,1.52-0.87,1.56-2.01C126.09,51.42,125.69,52.21,125.5,53.21z"/>
		<path class="st0" d="M220.38,71.96c2.54-7.83-2.66-16.5-8.26-20.32c0-0.22,0-0.45,0-0.67c0.18-0.12,0.36-0.23,0.67-0.22
			c4.77,1.86,9.17,8.87,9.6,14.06C222.62,67.62,222.24,70.42,220.38,71.96z"/>
		<path class="st0" d="M160.33,50.97c3.4,1.86,0.17,6.19-2.68,6.47C157.52,55.14,160.79,54.35,160.33,50.97z"/>
		<path class="st0" d="M155.64,51.2c1.33,2.46-1.22,7.55-5.13,5.36C151.57,54.12,152.08,51.14,155.64,51.2z M152.51,56.11
			c1.39-0.47,1.71-2.01,2.23-3.35C153.27,53.04,152.44,55.02,152.51,56.11z"/>
		<path class="st0" d="M147.6,51.87c1.02,3-1.33,6.51-4.91,5.58C142.57,53.83,144.41,52.17,147.6,51.87z M143.58,56.78
			c1.82-0.63,3.09-1.82,3.35-4.02C144.91,53.19,143.99,54.73,143.58,56.78z"/>
		<path class="st0" d="M133.31,60.35c-0.64-2.25,2.1-7.32,5.13-6.47C139.19,57.53,136.31,60.44,133.31,60.35z M134.43,58.79
			c2.12-0.32,3.65-3,2.9-4.24C136.34,55.93,134.82,56.79,134.43,58.79z"/>
		<path class="st0" d="M110.1,54.32c-1.78,4-3.71,8.28-4.91,12.73c-0.5,1.87-0.43,4.29-1.79,5.36c-0.86-5.97,2.6-13.44,5.8-18.08
			C109.5,54.32,109.8,54.32,110.1,54.32z"/>
		<path class="st0" d="M113.67,55.22c-0.52,3.23-3.17,6.77-4.24,10.72c-1.02,3.74-0.95,8.43-1.12,11.39
			c-0.06,1.15,0.29,2.37-0.89,2.9c-2.15-7.93,1.32-18.62,5.58-25C113.22,55.22,113.45,55.22,113.67,55.22z"/>
		<path class="st0" d="M162.34,57c2.19,0.22,3.01,3.62,0.67,4.24c-0.58-0.23-0.93-0.71-1.34-1.12
			C161.78,58.98,162.11,58.04,162.34,57z"/>
		<path class="st0" d="M195.6,71.96c-0.35-1.11,0.74-1.21,0.89-2.23c1.08-7.33-10.71-12.74-17.41-10.49
			c1.38-2.76,5.52-2.6,8.48-1.79c4.97,1.37,11.15,5.54,10.49,11.39C197.89,70.3,197.16,71.4,195.6,71.96z"/>
		<path class="st0" d="M129.52,57.45c0.09,2.84-1.92,3.59-2.9,5.36c-0.26-0.26-0.79-0.25-1.34-0.22
			C125.18,60.21,126.32,57.26,129.52,57.45z M127.06,60.57c0.2-0.62,0.83-0.81,0.89-1.56C127.25,58.99,126.68,60.25,127.06,60.57z"
			/>
		<path class="st0" d="M154.08,63.03c-1.42-2.03,3.68-7.63,4.47-4.02C158.9,60.65,156.98,63.83,154.08,63.03z M155.64,61.91
			c0.33-0.72,1.87-1.39,1.12-2.46C156.66,60.41,154.77,60.74,155.64,61.91z"/>
		<path class="st0" d="M121.04,59.46c0.07,2.89-0.21,5.99-3.13,6.47C118.31,63.58,118.68,60.45,121.04,59.46z"/>
		<path class="st0" d="M145.37,66.38c-1.59-3.71,4.11-7.63,4.69-4.02C150.35,64.19,148.18,67.25,145.37,66.38z M146.26,65.48
			c1.24-0.4,1.85-1.43,2.23-2.68c-0.74,0.15-0.36-0.46-0.22-0.67C147.04,62.69,146.17,63.61,146.26,65.48z"/>
		<path class="st0" d="M192.7,74.19c1.33-8.85-8.06-12.02-15.85-11.83c1.01-1.59,3.85-1.48,5.81-1.34
			c5.68,0.42,12.42,4.28,11.83,10.49C194.37,72.73,193.93,73.68,192.7,74.19z"/>
		<path class="st0" d="M135.55,67.94c-0.1-3.68,1.85-6.47,4.91-6.25C141.41,64.71,138.37,68.02,135.55,67.94z M136.66,66.6
			c1.36-0.49,3.39-2.47,2.46-3.8C137.96,63.73,136.99,64.84,136.66,66.6z"/>
		<path class="st0" d="M64.33,62.36c-1.5,2.56-5.18,2.07-7.37,3.79c-2.36,1.86-2.98,5.61-1.56,9.15c1.19,0.73,1.68,1.87,2.9,2.68
			c2.61,1.72,6.59,1.77,8.48,4.24c-1.51,0.12-3.84-0.72-6.03-1.34c-2.25-0.63-4.38-1.58-5.81-2.9c-5.59-6.85,0.8-15.68,8.71-15.85
			C64.02,62.07,64.05,62.35,64.33,62.36z"/>
		<path class="st0" d="M161,64.59c-0.05,0.39-0.38,0.51-0.89,0.45c1.23,2.46-1,5.76-3.79,4.91C156.52,67.92,158.16,62.56,161,64.59z
			 M158.54,68.16c-0.27-1.23,1.16-0.78,1.12-1.79c0.01-0.38-0.17-0.57-0.45-0.67C158.87,66.27,157.94,67.41,158.54,68.16z"/>
		<path class="st0" d="M31.96,64.59c0.22,0,0.45,0,0.67,0c-1.13,2.52-3.78,3.51-5.13,5.8C24.75,80.47,29,91.17,31.51,98.08
			c-1.18,0.39-1.57-1.37-2.23-2.46c-2.31-3.79-5.21-11.04-4.69-17.41c0.18-2.2,0.17-5.68,1.12-7.59c0.97-1.95,3.2-2.91,4.02-4.91
			C30.77,65.63,31.2,64.95,31.96,64.59z"/>
		<path class="st0" d="M129.07,66.83c-0.23,0.29-0.22,0.82-0.45,1.12C128.11,67.77,128.41,66.56,129.07,66.83z"/>
		<path class="st0" d="M121.93,67.49c0.58,2.44,0.47,6.66-2.9,6.92C118.28,72.39,118.6,67.45,121.93,67.49z M119.7,72.63
			c1.23-0.41,1.81-2.55,1.12-3.57C120.18,69.99,119.77,71.14,119.7,72.63z"/>
		<path class="st0" d="M152.74,67.49c2.02,2.57-2.05,6.47-4.46,4.47C149.33,70.04,150.17,67.9,152.74,67.49z M150.06,71.07
			c0.73-0.46,2.47-1.09,1.79-2.23C151.36,69.69,150.38,70.05,150.06,71.07z"/>
		<path class="st0" d="M50.94,67.72c0.24,0.06,0.15,0.44,0.45,0.45c-2.31,2.86-1.71,5.64-0.22,8.48c0.55,1.05,0.88,2.34,1.34,2.9
			c0.28,0.34,1.47,0.55,1.79,1.12c0.11,0.2-0.15,0.73,0,0.89c1.08,1.22,2.82,1.75,3.57,2.9c-2.45,0.17-4.26-1.42-6.25-3.8
			c-0.21-0.25-0.25-0.91-0.45-1.12c-0.35-0.36-1.08-0.32-1.34-0.67c-2.73-3.58-2-7.62,0.45-10.94
			C50.58,67.96,50.9,67.98,50.94,67.72z"/>
		<path class="st0" d="M142.69,70.62c-2.76-0.08-1.74,3.61-4.24,3.79c0.23-2.75,2.1-5.04,4.46-4.91c2.75,2.65-2.16,7.74-4.91,5.58
			c0-0.22,0-0.45,0-0.67C140.28,75.43,142.39,73,142.69,70.62z"/>
		<path class="st0" d="M133.31,71.74c1.78,1.85,0.23,6.27-3.57,5.8C128.96,75.13,130.39,71.84,133.31,71.74z M130.41,76.42
			c1.4-0.61,3.14-1.82,2.68-3.57C131.51,73.35,130.71,74.63,130.41,76.42z"/>
		<path class="st0" d="M150.28,75.75c-0.04-0.48,0.79-0.1,1.12-0.22c0.07-2.74,3.98-4.29,3.79-1.12
			C155.08,76.37,150.91,78.5,150.28,75.75z M152.96,75.53c0.16-0.65,1.2-0.43,1.11-1.34C153.4,74.19,152.62,75.24,152.96,75.53z"/>
		<path class="st0" d="M125.28,74.19c1.02,3.51-1.14,7.21-4.91,7.37c0.18-0.86,1.24-0.84,1.56-1.56c-0.22-0.3-0.75-0.29-0.89-0.67
			C121.43,76.73,122.82,73.3,125.28,74.19z M122.6,79.55c0.74-1,2.75-3.02,1.56-4.46C123.49,76.2,121.56,78.18,122.6,79.55z"/>
		<path class="st0" d="M17.67,75.98c0.22,0,0.45,0,0.67,0c-0.06,11.53,3.74,17.03,5.13,24.56c-1.44-0.13-1.15-1.75-1.56-2.9
			c-0.4-1.12-1.31-2.3-1.79-3.57C18.15,88.77,16.14,81.45,17.67,75.98z"/>
		<path class="st0" d="M147.38,76.65c-0.69,0.96,0.13,0.86,0.22,2.01c0.13,1.62-1.13,2.16-2.68,3.13c-1.47-0.45-1.38-0.24-2.68,0.22
			C142.14,79.42,144.79,76.54,147.38,76.65z M144.03,80.44c1.26,0.61,3.05-1.95,2.23-2.68C145.51,78.64,144.25,79.02,144.03,80.44z"
			/>
		<path class="st0" d="M215.02,78.43c1.6,0.19,2.68,2.82,3.79,4.24c0.21,2.65-0.54,3.29-1.12,5.36c-1.47-1.34-0.31-3.12-0.67-4.91
			C216.66,81.26,214.9,80.21,215.02,78.43z"/>
		<path class="st0" d="M137.78,78.88c-0.51,1.07,0.4,1.74,0.22,2.68c-0.4,2.18-2.63,2.63-4.24,2.46
			C133.18,81.41,135.46,77.86,137.78,78.88z M134.88,82.9c1.18-0.31,2.05-0.93,2.01-2.46C135.81,80.03,134.96,81.58,134.88,82.9z"/>
		<path class="st0" d="M187.34,86.69c4.08-0.3,10.07,0.52,11.39-3.35c0.58-1.7-0.41-2.6-1.12-4.24c0.38,0.08,0.42-0.17,0.45-0.45
			c0.15,0,0.3,0,0.45,0C205.47,82.9,193.14,92.08,187.34,86.69z"/>
		<path class="st0" d="M128.63,82.01c1.95,0.94,0.54,4.57-1.79,4.02c-0.88-0.06-0.68,0.95-1.56,0.89c-0.6-1.83,1.01-3.27,1.56-4.69
			C127.85,81.74,128.63,83.51,128.63,82.01z M126.39,85.35c1.53,0.28,2.24-1.24,2.01-2.01C127.16,83.45,126.79,84.41,126.39,85.35z"
			/>
		<path class="st0" d="M78.84,82.23c1.02,0.85,0.2,3.12,1.12,4.47c3.99,2.47,10.08,1.77,14.96,1.56c0.07,1.18-1.85,0.85-3.13,1.12
			c-2.12,0.44-3.53,0.98-6.03,0.89C80.53,90.08,76.28,88.1,78.84,82.23z"/>
		<path class="st0" d="M74.6,84.46c-0.51,2.64-2.16,4.26-1.56,6.7c1.22,4.96,9.72,3.28,14.06,3.13c-1,1.52-3.82,2.06-5.8,2.23
			c-4.88,0.43-10.04-1.05-9.82-6.25c0.09-2.28,1.63-3.77,2.46-5.8C74.15,84.46,74.38,84.46,74.6,84.46z"/>
		<path class="st0" d="M119.25,84.46c0.22,0,0.45,0,0.67,0c0.51,0.78,0.07,2.21-0.67,2.46c-0.63,0.04-0.56-0.63-0.89-0.89
			C118.31,85.16,119.39,85.42,119.25,84.46z"/>
		<path class="st0" d="M162.78,88.93c1.74,0.29,3.29,1.88,5.36,2.23c1.55,0.26,3.48-0.6,4.69,0.67c-0.37,1.55-2.46,1.4-3.57,1.34
			c-2.51-0.14-4.98-1.84-6.47-2.9C163.03,89.56,162.8,89.76,162.78,88.93z"/>
		<path class="st0" d="M104.29,92.5c0.22,0,0.45,0,0.67,0c0.94,5.31,10.46,6.59,14.06,2.9c0.56,2.34-3.5,3.86-6.47,4.02
			c-2.59,0.14-5.46-1.39-7.37-2.46c-0.5-1.21-1.2-2.23-1.34-3.8C104.12,93.07,104.3,92.88,104.29,92.5z"/>
		<path class="st0" d="M151.4,94.06c0.29,0.08,0.35,0.39,0.67,0.45c-0.01,4.9-4.43,9.46-11.16,7.81c-1.29-0.31-2.97-1.16-4.24-1.79
			c-1.17-0.58-3.16-1.32-2.68-2.68c3.3-0.44,10.01,5.31,14.73,1.56C150.39,98.09,150.07,95.57,151.4,94.06z"/>
		<path class="st0" d="M103.62,97.41c1.6,3.7,6.41,6.3,11.16,6.03c4.14-0.24,6.69-3.22,8.93-5.36c-0.18,8.25-19.86,10.17-20.98,0
			C103.18,98.01,103.17,97.48,103.62,97.41z"/>
		<path class="st0" d="M147.38,113.93c-0.68,2.5-6.56,2.79-9.82,2.01c-1.99-0.48-4.03-1.7-5.36-2.23c0.03-0.42,0.15-0.75,0.45-0.89
			c1.82-0.64,3.7,0.89,6.03,1.34C141.63,114.72,144.61,113.91,147.38,113.93z"/>
		<path class="st0" d="M86.21,115.49c-0.6,1.54-5.38,1-6.7,0.45c-1.19-0.5-2.13-1.8-2.68-2.46
			C79.68,113.44,82.62,115.08,86.21,115.49z"/>
		<path class="st0" d="M146.26,117.5c-0.25,2.53-3.75,2.42-6.25,2.23c-2.67-0.2-5.73-1.02-6.92-2.01c0.1-0.43,0.48-0.56,0.45-1.12
			C137.48,117.57,142.21,118.45,146.26,117.5z"/>
		<path class="st0" d="M77.95,117.06c1.5,1.43,3.72,0.5,5.81,1.34c-1.13,1.87-5.5,1.21-6.25-0.45
			C77.34,117.34,77.95,117.5,77.95,117.06z"/>
		<path class="st0" d="M115.68,122.86c-0.42,0.63-0.74,0.32-0.45,1.34c-5.5,2.22-11.28-1.4-14.96-3.8c-0.04-0.26,0.05-0.4,0.22-0.45
			c-0.06-0.4,0.21-0.46,0.22-0.22c0.96,0.9,2.62,1.1,3.57,2.01C107.83,122.44,111.71,124.61,115.68,122.86z"/>
		<path class="st0" d="M145.59,121.07c0.16,1.89-2.49,1.97-3.79,2.01c-3.32,0.09-8.58-1.06-10.27-2.46c0.6,0.15,0.43-0.46,0.67-0.67
			C136.52,120.76,142.07,121.42,145.59,121.07z"/>
		<path class="st0" d="M84.87,124.42c-2.99,0-5.99-1.89-8.71-2.9C78.15,120.25,83.83,121.89,84.87,124.42z"/>
		<path class="st0" d="M74.38,122.86c0.19-0.04,0.21,0.09,0.22,0.22c2.07,3.06,2.27,7.29,3.8,11.39c0.72,1.93,1.32,4.47,2.01,7.37
			c1.11,4.66,2.97,9.43,4.02,14.06c0.76,3.36,2.31,7.29,2.9,11.83c-2.3-1.26-2-4.4-2.68-6.7c-1.48-5.06-3.28-10.3-4.91-15.63
			c-0.83-2.7-1.05-5.47-1.79-8.04c-1.05-3.67-2.68-8.16-3.57-11.83C74.18,124.73,73.98,123.59,74.38,122.86z"/>
		<path class="st0" d="M102.28,124.2c3.79,1.28,7.77,1.66,12.06,2.01c-0.89,2.59-10.57,0.89-12.06-1.12
			C101.91,124.65,102.3,124.81,102.28,124.2z"/>
		<path class="st0" d="M216.36,124.87c0.2,0.1,0.4,0.2,0.45,0.45c-1.93,14.46-6.38,30.27-10.27,44.65c-0.46,3.7-1.5,6.83-3.13,9.38
			c-1.32-0.68-0.22-2.29,0-3.13c3.17-11.81,5.68-25,9.38-37.95c1.23-4.31,2.2-8.57,3.13-12.95
			C215.97,125.07,216.36,125.16,216.36,124.87z"/>
		<path class="st0" d="M145.59,125.98c0.39,1.27-0.75,1.57-1.56,1.79c-3.37,0.9-9.51-0.78-11.83-1.56c0.07-0.53,0.78-0.42,0.67-1.12
			C135.89,125.89,141.76,126.04,145.59,125.98z"/>
		<path class="st0" d="M78.84,126.65c2.01,0.9,3.5,2.3,5.81,2.9c-0.2,0.47-0.35,0.99-0.67,1.34
			C81.36,130.5,78.75,129.03,78.84,126.65z"/>
		<path class="st0" d="M113.22,131.34c-1.17,3.14-8.19,0.75-10.72-0.67c0-0.22,0-0.45,0-0.67
			C105.37,130.23,109.99,131.46,113.22,131.34z"/>
		<path class="st0" d="M145.37,129.78c-0.1,3.66-9.39,2.51-11.61,1.56c0.09-0.43,0.64-0.4,0.45-1.12
			C138.29,130.52,141.69,130.91,145.37,129.78z"/>
		<path class="st0" d="M80.41,133.58c0.36-0.06,0.38,0.21,0.67,0.22c1.55,4.96,5.54,7.36,9.6,10.27c-3.07-0.23-6.9-2.6-8.93-4.91
			C80.62,137.87,79.88,135.62,80.41,133.58z"/>
		<path class="st0" d="M145.37,135.81c0.38,1.79-1.91,1.3-3.13,1.34c-3,0.09-7.02,0.03-8.93-0.89c0.17-0.2,0.24-0.5,0.22-0.89
			C137.24,135.35,142.68,135.34,145.37,135.81z"/>
		<path class="st0" d="M40.44,135.36c0.92-0.18,0.42,1.07,1.34,0.89c1.7,6.05,3.35,10.88,4.47,15.85c0.08,0.35,0.39-0.2,0.45,0.22
			c1.57,5.36,2.79,11.1,4.47,15.4c-0.44,0.16,0.06,1.25-0.45,1.34c1.21,0.44,1.65,3.15,2.01,5.13c-1.83-2.12-3.04-6.03-3.57-8.71
			c-1.35-1.26-1.24-4.32-1.79-6.03c-0.09-0.27-0.54-0.24-0.67-0.45c-0.48-0.76-0.4-2.04-0.67-2.9
			C43.89,149.43,41.29,142.74,40.44,135.36z"/>
		<path class="st0" d="M111.88,137.37c-0.47,3.44-5.55,0.76-6.7,0C106.18,135.86,109.65,137.42,111.88,137.37z"/>
		<path class="st0" d="M218.82,137.15c0.22,0.01,0.17,0.27,0.22,0.45c-1.52,11.24-3.92,20.09-6.92,29.47c-0.39,0.37,0.2,0.75,0,1.56
			c-1.67,1.75-1.68,5.14-3.57,7.14c-0.29-3.7,1.93-6.72,2.9-10.27c2.22-8.1,3.93-18.84,6.7-27.68
			C217.99,137.22,218.61,137.39,218.82,137.15z"/>
		<path class="st0" d="M134.21,138.71c4.18,0.63,7.17,1.14,11.61,1.34c-0.13,2.05-2.93,1.73-4.91,1.56
			c-2.43-0.21-5.46-1.17-6.7-2.01C134.21,139.31,134.21,139.01,134.21,138.71z"/>
		<path class="st0" d="M112.33,142.51c0.17,0.69-0.61,0.43-0.45,1.12c-2.79-0.41-6.09-0.31-7.37-2.23
			C106.77,139.77,110.1,141.97,112.33,142.51z"/>
		<path class="st0" d="M89.78,148.98c-1.11,1.3-1.88-0.42-2.9-1.34c-1.72-1.55-4.09-2.68-4.91-5.13c-0.04-0.26,0.05-0.4,0.22-0.45
			C84.91,143.29,87.47,146.59,89.78,148.98z"/>
		<path class="st0" d="M84.87,149.2c0.15,0,0.3,0,0.45,0c2.03,2.14,4.13,4.21,5.8,6.7C87.75,154.95,85.93,152.46,84.87,149.2z"/>
		<path class="st0" d="M107.42,153.67c0.22,0,0.45,0,0.67,0c1.04,1.02,2.55,1.92,4.24,2.46c1.44,0.46,4.15-0.1,4.24,2.01
			C113.02,158.57,108.41,157.17,107.42,153.67z"/>
		<path class="st0" d="M144.48,158.36c0.01,2.83-8.45,0.85-9.6-0.89c0.21-0.46,0.46-0.88,0.67-1.34
			C137.97,157.74,141.7,158.28,144.48,158.36z"/>
		<path class="st0" d="M152.07,159.25c-0.07,0.3-0.56,0.19-0.89,0.22C151.24,158.95,151.77,158.96,152.07,159.25z"/>
		<path class="st0" d="M70.81,161.48c2.53,2.53,4.68,5.42,8.26,7.37c0.4-0.27,1.3-0.04,1.56-0.45c0.67,0.55-0.24,1.39-0.45,1.79
			c-2.28-0.11-5.21-1.78-6.92-3.57C72.23,165.54,70.39,162.89,70.81,161.48z"/>
		<path class="st0" d="M135.32,163.71c0.19-0.04,0.21,0.09,0.22,0.22c2.04,1.53,5.38,1.76,6.92,3.79c-1.9,1.68-5.79-1.18-7.59-2.46
			C134.73,164.46,135.03,164.09,135.32,163.71z"/>
		<path class="st0" d="M109.65,164.61c2.06,1.59,5.04,2.26,6.47,4.46C113.48,169.78,110,167.66,109.65,164.61z"/>
		<path class="st0" d="M135.77,169.96c2.43,1.36,5.29,2.29,7.81,3.57c0.12,0.32-0.87,0.54-0.22,0.67c-2.41,0.65-5.8-1.25-7.81-2.46
			C135.81,171.04,135.41,170.77,135.77,169.96z"/>
		<path class="st0" d="M111.21,171.3c1.9,1.15,4.4,1.71,5.58,3.57C114.74,175.7,110.53,173.94,111.21,171.3z"/>
		<path class="st0" d="M88.67,172.87c2.22,5.09,5.55,12.56,13.17,10.94c1.24-0.26,1.89-0.91,2.9-1.79
			c-0.14,4.62-6.91,4.58-10.49,2.46C91.08,182.6,88.2,176.97,88.67,172.87z"/>
		<path class="st0" d="M110.99,180.01c3,5.34,7.64,10.41,14.73,7.37c1.22-0.52,1.68-1.37,2.9-2.23c0.24,3.4-4.2,5.3-7.81,5.36
			c-5.55,0.09-7.96-5.22-10.05-8.93C110.84,181.05,111.12,180.74,110.99,180.01z"/>
		<path class="st0" d="M116.12,182.02c2.76,1.69,5.98,3.24,10.27,2.23C124.9,187.81,116.1,186.36,116.12,182.02z"/>
		<path class="st0" d="M136.22,183.58c0.22,0,0.45,0,0.67,0c1.26,2.09,2.12,5.03,4.91,5.36c2.64,0.31,4.86-1.94,6.25-3.13
			C147.43,192.66,134.97,192.2,136.22,183.58z"/>
		<path class="st0" d="M150.28,183.58c0.78,0.45,0.71,0.91,0.67,1.79c-0.37,8.03-14.95,13.22-15.18,2.9
			c1.84-0.13,1.8,2.59,3.13,3.35C144.4,194.78,149.78,188.1,150.28,183.58z"/>
		<path class="st0" d="M66.12,184.25c0.22,0,0.45,0,0.67,0c4.71,4.66,10.15,8.42,18.08,8.48c-4.3,2.47-11.24,0.09-15.18-3.13
			C67.9,188.14,66.18,186.2,66.12,184.25z"/>
		<path class="st0" d="M71.03,195.64c5.2,1.53,10.79,6.21,17.19,3.13C83.84,204.46,73.85,199.58,71.03,195.64z"/>
		<path class="st0" d="M176.18,196.75c-2.16,4.06-8,8.85-12.06,3.79c2.48-0.51,3.82,1.62,6.47,0.67
			C172.84,200.11,172.99,196.91,176.18,196.75z"/>
		<path class="st0" d="M154.75,199.88c0.26-0.04,0.4,0.05,0.45,0.22c-1.49,5.42-10,8.35-17.19,6.47c-1.57-0.41-3.48-1.12-4.02-2.23
			c3.93-0.39,8.45,1.76,12.73,0.89C150.27,204.51,152.76,202.34,154.75,199.88z"/>
		<path class="st0" d="M120.14,41.82c0.65-1.45,2.9-2.1,5.13-2.9c2.93-2.27,9.36-3,12.73-0.67c8.49-0.84,16.59,0.88,22.1,4.69
			c6.51-0.35,16.56,4.46,12.95,12.06c-0.72-0.53-0.09-1.69-0.22-2.46c-0.85-4.77-6.73-7.07-11.61-8.04
			c-0.46,0.14-0.06,1.13-0.89,0.89c1.21,1.45,3.09,1.76,4.24,3.35c1.79,2.46,1.67,6.28,4.02,7.81c0.63,2.51,0.32,4.94-0.22,7.37
			c1.84,0.84,5.16,0.19,6.7,1.34c-1.61,1.51-4.42-0.05-6.7,0.67c0.16,0.68-0.39,0.66-0.22,1.34c2.52,0.53,4.58-0.29,6.7,0.45
			c0.48-0.41,0.82-0.97,1.34-1.34c6.58-1.04,12.37,3.64,12.06,9.6c-0.05,0.91-0.49,2.09-1.34,2.68c-0.28-5.7-3.54-10.98-9.82-10.72
			c-0.5,0.23,0.86,0.46,0.89,0.89c-2.43,0.91-6.49-0.32-10.49,0.45c-0.81,0.38-0.93,1.45-1.34,2.23c6.72-0.03,12.36-1.26,17.64,0.45
			c-2.18,1.22-5.84,0-9.38,0.45c-3.22,0.4-9.07,0.1-10.72,3.35c6.15-0.44,12.92-0.99,19.42,0.22c-2.52,1.27-6.05,0.54-9.38,0.67
			c-3.97,0.16-12.06,0.44-14.29,3.8c5.79-0.11,15.44-0.77,21.65-0.89c1.41-0.03,3.23-0.86,4.24,0.45
			c-5.54,1.39-11.75,0.7-18.31,1.34c-6.47,0.63-10.69,1.59-14.51,4.91c5.91-0.29,9.47-1.65,14.29-0.89
			c2.67-1.29,8.72-0.94,11.83-0.89c-3.6,1.74-7.66,1.03-11.61,1.34c-2.9,0.23-6.07,1.27-9.38,1.34c4.68,3.59,9.64,7.54,15.85,8.93
			c2.04-0.42,3.93-0.52,4.02-2.23c0.06-1.23-1.86-1.68-1.12-2.68c0.29-0.85,2.02,0.44,2.68,0.67c0.98,4.05-2.77,6.47-6.92,6.03
			c-6.16-0.65-11.6-6.4-14.96-8.93c-6.47,0.95-13.91,1.42-20.98,1.79c-8.28,0.43-19.1,2.1-22.55-4.69c-1.05-3.26-2.56-5.68-2.9-9.38
			c-1.01-10.86,3.9-20.14,7.81-27.24c0.68,0.16,0.66-0.38,1.34-0.22c3.15-4.96,8.98-7.24,14.06-10.27
			C129.52,37.58,123.32,41.21,120.14,41.82z M148.05,84.24c2.06-1.31,3.97-3.38,6.03-4.91c3.36-2.51,6-4.87,8.26-8.04
			c0.75-1.05,1.8-2.42,2.23-3.35c3.07-6.64,0.68-14.9-2.9-18.75c-3.65-3.93-12.58-8.48-19.2-8.93c-8.09-0.55-14.91,3.76-18.75,8.48
			c-4.54,5.58-9.17,15.68-9.15,25.23c0,4.35-0.33,13.01,4.91,13.62c1.7-1.05,0.97-3.72,2.23-4.69c0.77,2.22-0.47,4.26-1.34,5.58
			C129.51,89.15,141.73,88.25,148.05,84.24z M160.33,44.95c-0.08-0.18-0.59-0.27-0.67,0C159.51,45.46,160.53,45.43,160.33,44.95z
			 M114.56,62.58c0-0.42,0.74-1.82,0.22-1.34C114.73,61.59,113.93,62.29,114.56,62.58z M155.86,81.34c0.84,0.1,1.02-0.47,1.34-0.89
			C156.51,80.5,156.34,81.06,155.86,81.34z M155.42,81.78c0.23-0.01,0.17-0.29-0.22-0.22c-1.72,1.92-4.54,2.75-6.47,4.46
			C151.25,84.91,153.85,83.86,155.42,81.78z M149.17,88.7c2.91-0.41,5.87,0.23,7.14-0.89C154.72,87.3,151.41,88.06,149.17,88.7z"/>
		<path class="st0" d="M134.21,95.62c0.48,0.1,0.43-0.32,0.45-0.67c3.57,2,8.23,1.21,12.06,0.67c0.01,0.53-0.38,0.66-0.22,1.34
			C141.84,98.7,136.64,98.6,134.21,95.62z"/>
		<path class="st0" d="M158.54,36.69c8.93-2.96,23.1,1.4,20.99,13.84c5.7,0.26,13.11,0.63,17.19,2.68c1.05,0.53,1.92,1.76,3.13,2.46
			c1.23,0.7,2.58,0.99,3.57,1.79c3.81,3.06,6.15,5.89,5.8,11.61c-0.18,2.97-1.74,4.54-2.68,7.14c1.9,2.5,6.65,3.31,6.25,7.37
			c0.35,0.34,1.24-0.32,1.56,0.45c-0.35,1.92-0.13,3.75-0.45,6.03c-1.01,7.39-2.93,14.64-4.69,21.88
			c-3.87,15.93-5.84,32.59-10.49,48c-1.23,7.33-4.11,17.01-9.15,22.32c-2.89,3.05-8.77,6.27-13.39,4.46
			c-2.14,5.03-9.65,15-16.52,9.38c-1.36-1.11-1.77-2.97-3.35-4.24c-2.81,4.48-8.59,10.02-15.63,9.82c-2.81-0.08-3.65-1.51-5.13-3.35
			c-1.37-1.7-3.32-2.85-3.79-5.13c-1.1,1.13-2.22,2.25-2.9,3.8c-2.35,1.02-4.95,1.86-7.37,2.01c-4.25,0.26-6.79-2.62-10.05-4.02
			c-0.88-1.13-2-2.01-2.68-3.35c-3.87,4.25-12.31,3.19-16.52-0.22c-1.96-3.54-5.13-5.88-6.7-9.82c-8.92,4.04-17.28-6.05-20.98-12.95
			c-6.33-11.8-9.88-24.38-14.73-38.18c-2.65-7.54-4.6-16.5-6.7-25c-2.13-8.63-4.63-17.05-6.03-24.56
			c-1.12-6.03,1.16-10.3,3.79-14.29c3.93-5.96,10.65-10.12,18.08-12.06c-3.12-4.25,0.83-11.84,4.91-14.73
			c6.31-4.47,17.25-3.36,23.89-1.79c1.96-4.78,7.69-6.08,13.17-7.37c1.04-0.24,2.21-0.79,3.13-0.89c1.56-0.17,3.52,0.86,5.36,1.12
			c2.14,0.3,3.42,0.01,4.91,1.12c5.44-7.11,16.72-9.19,27.68-8.04C148.54,27.19,154.67,30.81,158.54,36.69z M142.69,162.6
			c-1.12,1.65-3.82,0.54-5.58-0.22c-1.12-0.48-1.99-1.44-2.46-1.12c-0.26,0.62,0.71,2.68-0.67,3.13c-0.58-3.8-0.6-10.42-1.12-16.07
			c-0.82-0.52-1.97-0.71-2.68-1.34c0.35,4.95,0.3,8.94,0.45,13.39c0.39,12.21-0.22,27.35,5.58,35.72c0.86-0.03,1.98,0.58,2.68,1.34
			c5.91,1.08,11.16-2.55,13.84-6.03c3.8-4.94,3.19-15.43,3.57-23.66c0.12-2.47,0.27-4.82,0.45-6.92c-0.54-0.35-0.84-0.95-0.89-1.79
			c-0.11-0.71,1.11-0.08,0.89-0.89c0.14-6.42,1.46-12.33,0-17.64c0.42-0.05,0.49,0.25,0.89,0.22c-0.25-10.55,2.26-26.13,1.34-34.83
			c-2.37,1.29-4.09,3.74-6.7,4.69c-7.86,2.87-16.84-1.66-21.65-4.47c-0.1,0.77,0.09,1.25,0.22,1.79c-0.74,0.96-0.81,2.03-0.89,3.35
			c-0.24,4,0.3,9.05,0.22,14.06c-0.11,7.01,0.74,14.1,0,20.32c0.48,0.43,1.9,1.06,2.68,0.45c-0.03-1.64-1.53-1.84-1.34-3.13
			c0.21-0.56,1.15,0.6,1.12-0.45c0.03-1.43-0.4-3.18,0.67-4.02c0.05,1.74,0.81,2.76,0.67,4.69c1.39,0.4,3.1,1.06,4.91,1.12
			c1.84,0.05,4.18-1.3,5.36,0.22c-2.15,1.67-6.9,1.48-10.05,0.89c0,0.45,0,0.89,0,1.34c2.21,1.1,6.37,1.49,8.93,2.9
			c-1.68,1.69-6.67-0.26-8.71-1.12c-0.16,1.03-0.23,2.44,0.22,3.79c1.49,0.39,3.56,0.94,5.58,1.12c1.37,0.12,3.2-0.39,3.79,0.67
			c-2.56,2.61-6.91-0.45-9.6,0c0.82,1.79-0.58,5.1,0.67,6.03c0.09-0.38-0.33-0.57,0-0.67C137.15,160.99,140.64,161.08,142.69,162.6z
			 M151.4,33.11c-1.44-1.17-2.71-2.72-4.02-3.57c-8.51-5.53-23.08-2.76-30.58,3.35c-0.41,1.3-1.08,2.35-2.46,2.68
			c-4.32-4.23-16.02-4.13-21.66-0.67c-0.96,0.59-2.61,2.02-2.9,2.68c-0.39,0.89,0.81,3.07-0.89,3.79
			c-9.08-3.97-24.55-1.74-28.58,5.8c-1.8,3.36,1.75,6.17,1.34,7.81c-0.37,1.48-3.77,2.23-6.25,3.35c-4.89,2.19-9.04,4.91-11.83,8.48
			c-3.99,5.11-4.4,13.14,0.45,17.86c5.85,4.9,14.43,6.25,23.89,6.47c-0.69,2.23-2.19,3.61-1.12,6.47c2.32,3.66,7.06,5.88,12.5,6.03
			c3.19,0.09,6.88,0.04,9.38-0.89c2.64-0.99,3.8-3.74,6.47-4.02c-0.26,1.36-0.39,2.42,0.45,2.68c0.2,1.02-0.37,1.27-0.45,2.01
			c0.81,1.03,1.76,2.31,4.02,3.57c3.86,2.15,9.65,3.67,14.06,4.02c6.71,0.53,11.91-0.58,14.51-4.69c-0.52-0.95,0.24-1.6,0.67-2.23
			c-0.86-1.13-0.1-3.82,0.22-4.91c0.29-0.31,1.05-0.14,1.34-0.45c2.53,6.86,15.07,11.27,22.55,6.7c1.39-0.85,3.13-1.79,4.02-2.68
			c0.96-0.96,2.71-3.55,2.46-4.69c-0.3-1.34-2.13-1.33-2.46-2.9c1.94-2.73,3.26,0.32,5.13,2.01c3.38,3.04,9.9,5.64,14.96,6.47
			c5.33,0.87,13.21,0.29,12.95-5.8c-0.19-4.54-3.84-6.18-7.37-8.26c1.43-2.11,4.27-0.49,6.47,0c2.22,0.49,4.72,1.12,6.92,1.34
			c5.35,0.54,15.45-2.36,15.18-7.59c-0.1-1.97-3.16-4.5-5.36-5.13c-2.41-0.7-4.55,0.64-6.03-0.45c2.2-3.3,7.63-3.39,6.25-10.27
			c0.03-0.78,1.1-0.54,0.89-1.56c-0.11-3.22-1.99-3.72-3.8-5.36c-2.67-2.42-3.68-3.4-7.14-4.91c-1.71-0.75-3.73-1.63-5.36-2.01
			c-4.38-1.02-9.07,0.81-12.95-1.12c2.22-11.03-6.61-16.23-17.41-14.29c-1.05,0.51-0.71,2.41-2.23,2.46
			C156.48,36.84,154.19,35.39,151.4,33.11z M203.86,76.2c0.54-0.09,0.48,0.41,1.12,0.22c-0.03-0.42-0.15-0.75-0.45-0.89
			C204.51,75.95,203.79,75.69,203.86,76.2z M71.92,136.48c-0.57-1.37-0.63-3.24-1.34-4.46c-2.37-0.69-4.27-0.48-5.58-2.23
			c0.95-0.67,3.36,0.27,5.13,0.67c0.03-1.37-0.48-2.2-0.67-3.35c-2.75-0.15-5.25-0.55-6.03-2.68c1.99-0.56,3.27,1.28,5.58,1.12
			c-0.3-1.34-0.73-2.55-1.12-3.79c-1.94,0.02-5.68,0.26-6.25-1.79c0.17-0.05,0.26-0.19,0.22-0.45c1.88,0.27,3.39,0.93,5.58,0.89
			c-0.08-2.52-1.24-3.97-1.34-6.47c-3.16,0.87-7.48-0.22-8.04-2.46c1.59-0.28,4.67,2,7.59,1.12c0.07-1.19-0.28-1.95-0.45-2.9
			c-3-1.09-7.47-0.71-8.93-3.35c2.78,0.33,5.3,1.43,8.71,1.79c-0.51-1.91-0.69-2.84-1.12-4.91c-3.61-0.23-6.1-0.21-7.81-2.23
			c1.89-0.82,5.66,1.49,7.59,0.67c-1.47-2.4-2.1-4.88-0.45-7.59C57.66,93.73,49.53,93,45.8,90.49c2.65,8.74,5.17,17.33,7.81,25.9
			c1.26,4.07,2.86,8.15,4.02,12.28c1.28,4.57,2.27,8.18,3.35,12.28c0.7-0.1,0.63,0.56,0.89,0.89c0.61,3.4,3.67,6.84,3.13,9.6
			c-9.16-15.41-12.69-36.56-19.2-55.14c0-0.52,0-1.04,0-1.56c-0.87-0.69-0.6-2.53-1.34-3.35c0.24-0.43,0.07-1.05,0.67-1.56
			c-0.8-0.46-1.36-1.17-2.23-1.56c3.87,14.37,6.62,31.44,11.39,44.2c2.13,5.72,3.99,11.87,6.25,17.64
			c3.01,7.68,6.53,16.72,10.94,22.32c0.63,0.8,1.98,1.56,3.13,2.68c1.07,1.04,1.85,2.54,2.9,3.13c2.01,1.12,5.59,1.72,7.14,0.89
			c-0.96-1.34-1.4-3.21-1.79-5.13c-1.82,0.76-3.69,1.48-6.25,0.45c-4.26-1.72-10.26-9.65-8.48-12.95
			c1.89,5.17,6.87,13.4,14.06,11.16c-0.77-5.85-2.89-10.35-4.46-15.4c-2.51-0.77-5.43-2.29-6.03-4.24c1.7-0.04,3.59,1.6,5.36,2.23
			c-0.21-1.87-1-3.17-1.34-4.91c-2.1-0.3-4.11-1.82-4.46-3.13c1.41-0.6,2.59,0.79,3.79,1.12c0.17-4.63-4.96-3.97-6.47-6.92
			c1.71-0.7,2.91,0.92,4.47,1.12c0.29-0.96-0.48-2.6-0.67-3.8c-1.93-1.04-4.55-1.4-5.8-3.13C68.23,134.18,70.63,136.79,71.92,136.48
			z M190.69,94.06c1.88,1.67,3.97,3.89,2.9,7.81c3.15,1.02,6.45-1.98,8.71-1.12c-1.58,2.28-5.9,2.53-8.93,2.68
			c-0.23,1.41-0.42,2.86-0.67,4.24c4.01,1.3,8.31-1.78,10.72-0.67c-2.75,2.08-6.87,2.58-10.94,2.23c-0.43,1.28-0.28,3.14-0.89,4.24
			c1.38-0.1,2.38,0.14,3.57,0c3.16-0.37,5.74-2.91,8.04-1.56c-3.07,1.62-6.83,3.48-11.39,2.9c-0.39,1.68-0.6,2.36-0.67,3.57
			c3.46,1.14,6.96-2.09,10.27-1.79c-2.32,2.13-5.98,3.92-10.49,3.13c-0.05,1.81-0.9,2.82-0.67,4.91c2.48-0.48,4.9-1.01,6.92-2.01
			c0.99-0.49,2.05-2.29,3.35-1.12c-2.41,2.87-6.69,3.88-10.94,4.91c0.21,1.44,0.11,2.62-0.22,4.02c3.93-0.31,6.57-3.1,9.6-3.57
			c-1.68,3.38-6.25,3.87-9.82,5.36c-0.22,1.04-0.38,2.15-0.67,3.13c4.06-0.11,7.84-1.68,10.71-2.23c0.11,1.96-2.66,2.03-4.46,2.46
			c-2.04,0.48-4.28,1.16-6.25,1.12c-0.27,1.82-0.78,3.38-0.89,5.36c4.44,0.84,6.74-2.74,9.82-1.79c-2.28,1.97-5.81,3.85-10.05,3.13
			c-0.3,1.12-0.26,2.57-0.67,3.57c3.91,0.24,6.39-2.06,9.6-1.79c-2.13,2.26-5.79,2.99-9.82,3.35c-0.32,0.94-0.52,2.01-0.67,3.13
			c3.46,0.25,5.89-2.62,8.48-1.79c-1.95,1.93-5.54,3.38-8.93,3.13c0.16,1.13-0.69,1.25-0.45,2.46c3.38,1.52,7.65-1.5,10.05-0.89
			c-1.66,2.3-6.91,3.51-10.27,2.01c-0.51,1.8-1.03,3.58-1.34,5.58c3.2,0.38,5.68-2.12,7.59-1.56c-0.61,2.08-4.17,3.11-7.81,2.9
			c-0.21,1.05-0.26,2.27-0.67,3.13c2.66,0.52,5.5-1.76,7.37-2.01c-0.31,2.63-4.3,3.41-7.81,3.57c-0.4,1.43-0.35,2.13-0.89,3.57
			c2.4,0.6,4.52-0.77,5.8-1.12c1.21,2.65-3.51,2.77-6.47,2.68c0.11,1.15-0.63,1.45-0.45,2.68c2.59,3.82,7.07-0.9,9.38-1.34
			c-0.46,2.29-4.68,4.95-7.37,4.46c-1.31-0.24-1.64-1.72-2.68-1.79c-0.12,2.56-1.19,4.17-1.79,6.25
			c7.81,1.58,12.11-4.86,14.06-10.05c5.26-13.94,9.47-33.29,13.17-50.68c0.94-4.43,0.94-9.49,2.01-14.29
			c0.68-3.03,2.02-6.19,2.68-9.38c0.76-3.67,2.19-8.58,1.79-10.94C209.12,94.86,197.77,94.5,190.69,94.06z M205.2,91.16
			c0.7,0.11,0.91-0.28,1.12-0.67C205.61,90.38,205.4,90.77,205.2,91.16z M63.89,96.29c0.02-0.42,0.74-0.15,0.67-0.67
			c-0.63,0.1,0.56-0.83-0.22-0.89C64.36,95.3,63.34,95.95,63.89,96.29z M162.34,112.37c2.48,0.93,6.92,1.7,10.27,1.56
			c1.17-0.05,3.19-1.26,3.35,0.67c-4.02,1.48-10.3,0.45-13.62-0.89c0.16,1.42-0.38,2.15-0.22,3.57c4.16,1.48,9.11,1.73,13.62,1.34
			c1.38-0.12,2.58-0.93,3.35,0.22c-3.91,2.39-12.91,1.69-16.97-0.22c-0.63,1.9-0.21,2.3-0.45,4.24c2.9,0.57,5.78,1.19,8.71,0.89
			c1.43-0.15,3.27-1.42,4.69,0c-3.12,1.9-9.19,1.59-13.39,0.67c-0.14,0.56-0.26,1.61-0.22,2.9c2.77,0.87,5.41,1.84,8.26,1.56
			c1.5-0.15,3.01-1.27,4.46-0.45c-2.18,3.41-9.83,1.82-12.72,0.22c-0.41,1.01-0.07,2.76-0.45,3.8c2.77,0.65,6.13,1.05,9.15,0.67
			c1.28-0.16,2.73-1.33,3.57-0.22c-2.2,3.09-8.96,1.44-12.72,1.34c0.02,0.69-0.27,1.07-0.45,1.56c2.02,1.44,6.36,2.44,9.82,2.01
			c1.09-0.13,2.1-1.33,2.9-0.22c-2.78,3.24-9.17,1.46-12.5,0c-0.05,2.26-0.42,3.17-0.67,4.91c2.66,0.42,6.97,0.95,10.05,0.67
			c1.2-0.11,2.28-1.03,2.9,0c-2.89,3.1-8.97,0.88-12.95,0.89c-0.19,0.8-0.02,1.44,0,2.68c2.58,0.44,6.85,0.55,9.82,0.45
			c1.06-0.04,2.39-0.82,2.68,0.45c-2.86,2.1-9.5,1.03-12.73,0.45c0,1.61-0.23,1.64-0.22,3.13c3.05,0.86,7.71,0.92,10.72,0
			c-0.7,0.68,0.73,0.22,0.67,0.89c-2.24,2.1-7.88,1.27-11.39,0.89c-0.56,0.82-0.17,1.2-0.22,2.46c2.23,0.78,6.27,1.21,9.15,1.12
			c0.94-0.03,2.32-0.96,2.46,0.45c-2.48,2.23-8.68,0.78-11.61,0c-0.04,1.53-0.3,2.3,0,3.35c4.13,0.78,9.56,0.69,13.17,0.22
			c-1.85,3.62-9.41,1.51-13.39,1.34c-0.29,0.65,0.14,1.15,0,2.23c3.26,1.16,8.13,0.61,10.72,1.34c-1.25,2.61-8.32,0.85-10.94,0
			c-0.32,0.72-0.21,1.87-0.22,2.9c1.06,0.29,2.43,0.76,4.02,0.89c1.89,0.16,4.09-0.52,4.91,0.45c-1.46,2.22-6.84,0.84-8.93,0.22
			c-0.34,0.76-0.29,3.47,0,4.91c1.87,1.11,4.85,1.1,6.25,2.68c-2.15,0.37-4.69-0.62-6.7-1.12c-0.13,2.26-0.21,4.14,0.22,6.25
			c3.93,2.59,7.63-1.39,10.72-1.56c-2.07,2.61-6.61,5.34-10.72,3.8c1.7,4.25,8.99,1.79,11.61-0.89c0.89-0.91,1.13-2.77,2.68-2.68
			c-1.41,5.68-8.34,8.89-13.84,7.14c0.06,2.77,1.23,4.67,3.13,4.91c3.62,0.46,6.42-3.99,9.15-3.8c5.33-6.69,7.1-18.57,8.93-26.79
			c-0.79-0.49-2.23-2.15-1.12-3.13c0.3,0.81,0.67,1.56,1.56,1.79c0.74-4.82,2.93-11.5,1.79-15.4c0.72-0.28,0.17,0.72,0.89,0.45
			c2.29-13.84,3.78-27.01,5.58-41.97c-7.74,4.36-20.98,1.41-26.12-2.68C162.06,105.74,162.29,107.81,162.34,112.37z M143.14,109.02
			c4.63,0.65,9.09,0.08,11.83-1.79c1.69-1.15,4.14-2.96,4.24-4.91c-0.05-0.17-0.19-0.26-0.45-0.22
			C155.48,106.33,150.36,109.41,143.14,109.02z M77.06,145.63c6.9,14.8,6.43,40.81,22.32,46.44c1.31-0.59,2.23-0.21,4.02-0.22
			c1.98-0.55,2.24-2.82,4.24-3.35c-5.84-15.21-7.95-34.55-11.61-52.69c-2.16-10.72-4.25-22.05-4.69-31.92
			c-7.54,2.67-17.65,2.41-24.78-0.45C69.16,117.49,73.53,130.57,77.06,145.63z M95.14,109.46c3.52,27.64,8.56,50.66,14.51,74.12
			c2.16,2.87,2.68,8.62,5.36,10.72c1.39,1.09,4.97,1.82,6.92,1.79c3.75-0.07,7.13-2,8.71-4.69c-2.85-8.27-2.07-19.1-2.23-27.68
			c-0.2-10.5-1.29-22.11-1.12-31.25c0.15-7.9,0.57-14.9,0.45-22.33c-1.45,0.35-2.36,2.18-4.02,2.68c-3.38,1.02-8.94,0.4-14.06-0.22
			c-6.33-0.77-11.32-1.82-14.51-3.8C95.14,109.02,95.14,109.24,95.14,109.46z M80.85,180.9c-0.49,0.02-1.44-0.61-1.56-0.22
			C79.64,180.8,80.48,181.54,80.85,180.9z M165.91,194.3c0.19-0.28,1.51-0.55,0.89-0.89C166.74,193.81,165.27,193.93,165.91,194.3z
			 M140.68,200.1c-1.18-0.25-2.09-0.57-2.9-0.45C138.32,200.09,139.87,200.69,140.68,200.1z"/>
		<path class="st0" d="M105.63,150.1c0.53,2.79,1.43,6.25,1.56,9.15c3.08,1.61,6.48,2.89,9.6,4.46c0.19,2.02-2.04,0.86-3.13,0.45
			c-2.28-0.86-4.26-2.01-6.03-3.13c-0.55,2.22,0.26,1.87,0.45,4.24c-1.29-1.26-0.99-3.05-1.34-4.69
			c-1.66-7.71-3.88-15.96-4.91-23.89c-0.22-0.04-0.6-0.98-0.67-0.45c0.05-0.46,0.08-2.55,0.45-3.79c1.68,2.67,1.76,7.16,2.46,10.49
			c0.8,3.8,7.31,4.86,11.61,5.13c-2.85,2.95-8.56-0.03-10.49-2.01c-0.36,0.61-0.07,1.77,0.22,2.23c1.2,1.86,7.72,3.07,10.49,4.47
			c-0.22,1.22-1.77,0.92-2.46,0.89c-2.63-0.12-5.75-2.3-7.37-3.35C105.9,150.28,105.86,150.1,105.63,150.1z"/>
		<path class="st0" d="M146.93,42.94c1.53,3.92-3.75,8.8-7.14,5.8c0.8-2.03,2.13-3.53,3.35-5.13
			C144.58,43.56,146.28,43.78,146.93,42.94z M142.24,46.96c0.51-0.06,0.84,0.05,0.89,0.45c-0.33,0.42-0.9,0.59-0.89,1.34
			c1.33-0.79,3.19-1.88,3.35-3.35c-0.02,0.17-1.04-0.43-0.22-0.89C143.62,44.61,142.78,45.63,142.24,46.96z"/>
		<path class="st0" d="M131.75,64.59c-0.46,3.36-2.33,6.41-5.58,6.25C126.35,67.27,127.69,62.84,131.75,64.59z M127.51,68.61
			c0.33,0.12,0.56,0.33,0.89,0.45c0.28-1.28,1.51-1.62,1.79-2.9c-0.51-0.31-0.84,0.58-0.89,0c-0.03-0.45,1.52-1.04,0.45-1.12
			C128.67,65.9,127.68,66.85,127.51,68.61z"/>
		<path class="st0" d="M41.34,121.97c4.52,11.55,7.77,25.33,10.94,36.61c0.87,0.66,1.29,4.39,1.79,6.03
			c1.04,3.39,2.45,6.4,3.35,9.38c0.36,1.18,0.27,2.47,0.67,3.57c0.45,1.25,1.62,2.18,1.12,3.57c-2.59-2.71-3.4-6.86-4.69-10.72
			c-3.53-10.57-7.47-23.31-10.72-35.5C42.67,130.7,40.63,125.02,41.34,121.97z"/>
	</g>
</g>
</svg>
