<?xml version="1.0" encoding="utf-8"?>
<!-- Generator: Adobe Illustrator 23.0.1, SVG Export Plug-In . SVG Version: 6.00 Build 0)  -->
<svg version="1.1" id="Слой_1" xmlns="http://www.w3.org/2000/svg" xmlns:xlink="http://www.w3.org/1999/xlink" x="0px" y="0px"
	 viewBox="0 0 85 97" style="enable-background:new 0 0 85 97;" xml:space="preserve">
<style type="text/css">
	.st0{fill-rule:evenodd;clip-rule:evenodd;fill:#4F2C1E;}
</style>
<g>
	<path class="st0" d="M48.5,45.56c0.34,1.41,0.21,3.67-0.17,4.9c4.36,1.22,6.99,3.55,8.97,7.56c1.05,2.12,1.95,4.72,2.16,6.97
		c0.1,1.03,0.12,2.33,0,3.16c-0.12,0.87-0.64,1.79-0.91,2.65c-0.83,2.62-1.56,5.68-3.07,7.64c-1.74,2.26-4.38,3.76-7.39,4.9
		c-1.9,0.72-3.45,1.67-6.31,1.58c-4.13-0.13-7.21-1.42-10.05-2.99c-1.21-0.67-2.63-1.58-3.4-2.49c-0.32-0.38-0.51-0.93-0.83-1.41
		c-0.62-0.91-1.56-1.71-1.99-2.57c-0.65-1.3-1.06-3.23-1.33-4.98c-0.26-1.73-0.62-3.8-0.58-5.65c0.02-1.11,0.54-2.64,1-3.74
		c1.35-3.23,3.28-6.16,5.81-8.39c1.24-1.09,2.71-1.79,4.57-2.33c0.09-0.54-0.12-1.17-0.17-1.91c-0.05-0.81,0.25-1.63,0.17-2.24
		c-0.07-0.48-0.84-1.36-1.33-1.99c-2.46-3.16-4.77-6.01-7.31-9.05c-3.06-3.66-5.26-7.29-8.14-11.46c-0.82-1.18-1.54-2.41-2.49-4.07
		c-0.53-0.93-2.54-3.47-1.83-4.32c0.51-0.6,1.63,0,2.24,0.25c4.31,0.58,9.38,0.15,13.2-0.41c1.96,3.31,3.65,6.68,5.65,9.88
		c0.98,1.58,2.09,3.06,3.07,4.65c0.98,1.59,1.79,3.29,2.91,4.82c3.01-3.15,5.84-6.79,8.39-10.54c1.76-2.6,3.6-5.03,4.98-8.14
		c0.27-0.6,0.29-1.56,0.75-1.91c0.74-0.56,3.03-0.15,4.48-0.25c2.38-0.17,5.74-0.16,7.81-0.33c1.3-0.11,3.97-0.34,4.32,0.5
		c0.27,0.64-0.26,1.64-0.5,2.24c-0.84,2.15-1.57,4.37-2.66,6.06c-0.39,0.61-1.02,1.13-1.5,1.74c-1.39,1.78-2.54,3.76-3.9,5.65
		c-0.53,0.74-1.2,1.38-1.74,2.16c-1.54,2.23-3.69,3.91-5.48,5.98C53.47,40.46,50.73,42.85,48.5,45.56z M52.24,29.37
		c-0.26,4.13-1.19,8.21-1.74,11.54c0.85-0.87,1.76-1.67,2.57-2.57c-0.1-0.26-0.37-0.34-0.33-0.75c0.46-2.81,0.76-6.17,0.91-9.3
		c0.04-0.75-0.33-3.81,0.5-3.74c0.71,0.07,0.44,2.9,0.41,3.4c-0.14,2.97-0.53,6.63-0.83,9.47c0.53-0.13,0.9-1.15,1.49-1.5
		c-0.32-1.67,0.18-3.44,0.33-5.4c0.11-1.41,0-2.76,0-4.24c0-0.89-0.29-3.88,0.5-3.82c0.72,0.06,0.42,3.26,0.42,3.82
		c0,3.33-0.07,5.91-0.5,8.64c0.38-0.2,1.08-0.66,1.33-1.25c0.21-0.49,0.11-1.14,0.17-1.91c0.13-1.72,0.28-4.77,0.17-6.97
		c-0.06-1.08-0.55-3.81,0.33-3.74c0.63,0.05,0.38,2.09,0.42,2.66c0.16,2.73,0.29,6.45,0,8.88c0.43-0.64,1.52-1.26,1.74-2.24
		c0.11-0.47-0.04-1.04,0-1.58c0.17-2.16,0.17-5.2,0.17-7.56c0-0.56-0.29-1.6,0.5-1.74c0.59,0.27,0.41,1.07,0.42,1.66
		c0.03,2.68,0.05,5.82-0.17,8.05c0.43-0.23,0.72-0.79,1.08-1.33c0.29-0.44,0.9-0.99,1-1.58c0.13-0.77-0.08-2.06-0.08-3.24
		c0-1.2,0.08-2.47,0-3.4c-0.07-0.89-0.74-2.47,0.5-2.74c0.47,0.5,0.2,1.34,0.25,1.99c0.16,1.96,0.23,4.15,0.17,6.23
		c0.45-0.47,1.55-1.52,1.74-2.41c0.16-0.75,0-1.88,0-2.74c0-0.78-0.32-1.94,0.5-2.24c0.84,0.6,0.23,2.65,0.42,3.9
		c1.43-1.51,2.25-4.34,3.16-6.64c-4.45,0.14-8.93,0.26-13.45,0.33c-3.54,8.11-8.99,14.32-14.28,20.67c0.7,0.85,1.35,1.76,1.99,2.66
		c0.41-0.58-0.13-2.41,0.66-2.41c0.97,0,0.08,2.57,0.17,3.49c0.23,0.38,0.43,0.78,0.75,1.08c0.22-1.64,0.62-3.7,0.75-5.48
		c0.03-0.44-0.27-2.32,0.5-2.24c0.61,0.06,0.39,1.58,0.33,2.33c-0.16,1.91-0.43,3.45-0.67,4.98c-0.12,0.82-0.38,1.69,0.42,1.91
		c1.2-2.8,1.83-6.58,1.83-10.54c0-0.45-0.19-2.05,0.5-1.99c0.68,0.06,0.47,3.72,0.42,4.4c-0.21,2.35-0.83,5.19-1.41,7.22
		c-0.22,0.78-0.57,1.53-0.5,2.08c0.73-0.24,1.32-1.33,1.99-1.91C49.21,40.8,49.81,39.95,50,39c0.64-3.28,1.26-7.07,1.41-10.54
		c0.02-0.47-0.28-1.38,0.42-1.66C52.52,27.33,52.29,28.56,52.24,29.37z M41.53,38.17c-0.87-1.16-1.87-2.35-2.66-3.57
		c-0.79-1.23-1.46-2.63-2.24-3.9c-2.71-4.42-5.88-8.69-7.97-13.62c-0.08,0-0.1-0.07-0.17-0.08c0-0.05-0.01-0.1-0.08-0.08
		c-1.3,0.61-3.61,0.25-5.56,0.5c-0.27,0.03-0.55,0.21-0.83,0.25c-2.03,0.26-4.04-0.42-5.73-0.42c0.89,1.46,1.56,3.15,2.66,4.4
		c0.32-0.67,0.21-2.55,1-2.49c0.93,0.07-0.35,2.97-0.25,3.57c0.07,0.45,0.52,0.99,0.66,1.25c0.29,0.51,0.51,0.77,0.83,1.08
		c0-1.09,0.14-2.29,0.33-3.32c0.18-0.97,0.25-2.27,1.16-2.57c0.52,0.61-0.02,1.45-0.17,2.16c-0.32,1.55-0.51,3.2-0.41,5.15
		c0.32,0.54,0.6,1.11,1,1.58c0.34-2.82,0.8-5.6,1.66-7.8c0.28-0.7,0.48-1.63,1.16-1.99c0.72,0.6,0,1.48-0.25,2.08
		c-1.05,2.56-1.55,5.62-1.66,9.05c0.24,0.26,0.33,0.67,0.66,0.83c0.34-2.78,0.95-5.08,1.66-7.64c0.1-0.38,0.58-2.12,1.16-1.99
		c0.56,0.12,0.14,1.02,0.17,0.91c-0.27,1.07-0.79,2.45-1,3.24c-0.44,1.71-0.98,3.44-1.08,4.65c-0.06,0.75-0.27,1.41-0.17,1.91
		c0.15,0.73,1.14,1.26,1.41,1.91c-0.05-2.09,0.46-3.57,1-5.15c0.41-1.23,0.55-2.82,1.66-3.32c0.55,0.58-0.13,1.42-0.33,2.08
		c-0.22,0.73-0.5,1.47-0.75,2.24c-0.36,1.11-1.15,3.69-0.75,5.15c0.18,0.67,1.01,0.95,1.41,1.58c0.07-2.33,0.31-3.71,0.91-5.73
		c0.19-0.63,0.45-2.78,1.08-2.82c0.95-0.06-0.02,2.18-0.17,2.66c-0.62,2.06-0.89,4.67-1.08,6.89c0.32,0.22,0.76,1.16,1,0.91
		c0.04-0.13-0.04-0.6,0-1c0.09-0.8,1.1-5.82,1.91-5.65c0.65,0.14,0.28,0.93,0,1.25c-0.09,1.25-0.82,2.83-1,4.4
		c-0.21,1.87,0.02,3.01,1,3.74c-0.05-1.95,0.44-3.84,0.83-5.15c0.13-0.44,0.18-1.24,0.83-1.08c0.6,0.77-0.18,1.62-0.41,2.49
		c-0.3,1.1-0.2,2.64-0.33,3.9c-0.03,0.3-0.27,0.4-0.42,0.58c0.38,0.21,0.77,1.26,1.08,1c0.02-1.01,0.08-1.8,0.25-2.57
		c0.21-0.92,0.45-2.05,1.08-2.49c0.92,0.46-0.02,1.68-0.25,2.74c-0.23,1.08,0.03,2.67-0.5,3.32c0.29,0.18,0.33,0.61,0.66,0.75
		c0.37-1.26,0.17-3.1,1.41-3.49c0.66,0.34-0.02,0.98-0.17,1.49c-0.26,0.88-0.4,1.96-0.33,2.82c0.76-0.08,0.14-1.53,1-1.33
		c0.37,0.09,0.35,0.43,0.33,1.08c2.66-0.14,5.89-0.14,8.55,0C44.69,42.48,43.18,40.36,41.53,38.17z M36.63,46.39
		c-0.17,1.17-0.18,2.15,0,3.32c2.77-0.85,7.62-1.05,10.13,0.17c0.25-1.03,0.29-2.26,0.25-3.57C43.99,45.94,39.53,45.86,36.63,46.39z
		 M50.91,74.45c-0.6,0.65-1.56,1.93-2.49,1.66c-0.28-0.63,0.52-0.94,0.83-1.25c2.69-2.6,5.3-5.38,8.05-7.81c0.2-0.06,0.48,0.4,0.5,0
		c0.08-1.19-0.09-2.12-0.25-3.07c-1.56,0.85-2.67,2.42-3.99,3.73c-0.97,0.97-2.16,1.99-2.91,3.07c-0.26,0.37-0.32,1.18-1.08,0.91
		c-0.29-1.01,0.75-1.85,1.33-2.49c0.66-0.74,1.41-1.49,2.08-2.16c1.4-1.4,2.63-3.19,4.32-3.9c-0.81-3.69-2.59-7.13-5.07-9.13
		c-1.06-0.86-2.56-1.2-4.07-1.74c-0.99-0.35-2-0.94-2.99-1.25c-1.93-0.59-4.75-0.45-6.64-0.08c-1.42,0.27-2.95,0.85-4.23,1.33
		c-2.01,0.76-3.56,2.35-4.82,3.9c-1.8,2.23-3.23,4.21-3.99,7.56c-0.23,1-0.11,1.82,0.08,2.74c0.19-0.77,0.56-1.54,0.91-2.24
		c0.31-0.63,0.58-1.61,1.49-1.66c0.45,0.82-0.51,1.43-0.83,2.08c-0.45,0.91-0.65,1.92-1,2.91c-0.06,0.3-0.51,0.21-0.5,0.58
		c0,0.67,0.17,1.16,0.25,1.74c0.17-0.74,0.47-1.47,0.83-2.08c0.33-0.56,0.64-1.38,1.33-1.58c0.57,0.92-0.47,1.88-0.91,2.82
		c-0.79,1.69-1.19,3.93-0.17,5.4c0.14-1.16,0.35-2.44,0.75-3.4c0.25-0.61,0.69-1.61,1.49-1.66c0.44,0.8-0.46,1.41-0.75,2.16
		c-0.46,1.19-0.51,2.59-0.83,3.99c0.35,0.38,0.93,1.39,1.25,1.25c0.09-1.3-0.22-2.99,0.91-3.24c0.53,0.38,0.06,1.1,0,1.74
		c-0.09,1,0.07,2.12,0,3.16c2.42,2.09,6.07,4.12,10.21,4.65c3.95,0.5,6.75-0.77,9.22-2.57c0.44-0.14,0.44,0.43,0.75,0.16
		c4.89-1.92,6.24-7.82,7.72-12.87C55.57,70.01,53,72.21,50.91,74.45z"/>
	<path class="st0" d="M33.56,17.08c0.19,0.2,0.3,0.47,0.25,0.91c1.12,2.45,2.66,4.71,4.23,6.89c0.43,0.59,1.57,1.28,1,2.16
		c-0.91-0.27-1.34-1.26-1.91-2.08c-1.06-1.53-2.15-2.8-3.24-4.65C33.49,19.64,32.11,17.25,33.56,17.08z"/>
	<path class="st0" d="M39.7,24.47c-0.4,0.74-0.73,0.1-1.08-0.33c-0.5-0.6-1.59-1.71-1.49-2.49c0.2-0.05,0.18-0.32,0.5-0.25
		C38.29,22.46,39.25,23.2,39.7,24.47z"/>
	<path class="st0" d="M28.58,39.66c-1.38,0.21-1.95-1.23-2.82-2.08c-2.77-2.66-5.81-5.9-8.55-8.88c-0.75-0.81-1.13-1.38-1.74-2.33
		c-0.84-1.28-2.15-2.52-2.57-3.99c0.05-0.12,0.13-0.2,0.25-0.25c0.8-0.02,1.4,1.63,1.91,2.33c0.31,0.42,0.64,0.78,0.91,1.16
		c1.11,1.55,2.34,3.06,3.74,4.48c2,2.05,3.85,4.52,6.06,6.39c0.56,0.47,1.07,0.96,1.58,1.5C27.77,38.46,28.58,38.92,28.58,39.66z"/>
	<path class="st0" d="M71.67,22.73c0.15,0.75-0.43,1.46-0.75,2.08c-0.98,1.88-2.3,3.66-3.65,5.23c-1.84,2.13-3.64,4.32-5.56,6.31
		c-0.93,0.97-2.14,1.69-3.16,2.57c-0.43,0.37-0.62,1.09-1.33,1.08c-0.47-1.18,0.88-1.77,1.49-2.24c2.85-2.2,5.23-5.27,7.64-8.05
		c0.91-1.05,1.71-2.13,2.49-3.24c0.81-1.16,1.29-2.56,2.16-3.57C71.18,22.69,71.27,22.51,71.67,22.73z"/>
	<path class="st0" d="M64.95,35.51c0.15,0.62-0.54,1.15-1.08,1.74c-0.45,0.5-0.88,1.21-1.25,1.49c-0.97,0.75-1.99-0.12-0.58-0.66
		c0.75-0.97,1.54-1.89,2.41-2.74C64.71,35.31,64.77,35.46,64.95,35.51z"/>
	<path class="st0" d="M51.33,44.9c-0.42,1.96,0.28,3.51,1.66,4.32c0.8,0.47,1.84,0.65,2.66,1.08c0.4,0.21,1.18,0.52,0.83,1.16
		c-0.75,0.24-1.48-0.64-2.41-1c-0.33-0.13-0.74-0.11-1.08-0.25c-1.5-0.63-3.15-2.38-2.66-4.73C50.39,45.21,50.77,44.55,51.33,44.9z"
		/>
	<path class="st0" d="M30.99,50.63c0.37-1.02,1.61-0.96,1.74-2.08c0.13-1.07-0.77-1.7-0.83-2.91c0.86-0.63,1.73,1.72,1.74,2.66
		c0.01,1.07-0.71,1.76-1.41,2.24C31.87,50.79,31.28,51.21,30.99,50.63z"/>
	<path class="st0" d="M49.33,53.7c-0.53,1.36-1.13,2.64-1.99,3.65c-0.07-0.06-0.19-0.09-0.33-0.08c-0.24-1.44,1.22-2.51,1.58-3.9
		C48.99,53.22,49.13,53.45,49.33,53.7z"/>
	<path class="st0" d="M47.09,53.45c0.12,0.98-0.28,2.15-1.08,2.49c0-0.08-0.1-0.06-0.17-0.08c-0.37-0.83,0.47-1.69,0.66-2.49
		C46.73,53.37,46.99,53.33,47.09,53.45z"/>
	<path class="st0" d="M45.18,53.61c0.23,0.66-0.07,1.47-0.75,1.5C43.82,54.83,44.36,53.2,45.18,53.61z"/>
	<path class="st0" d="M48.84,59.18c-0.69-0.6,0.19-1.54,0.58-2.16c0.47-0.74,0.97-1.53,1.25-2.16c0.02-0.09,0.17-0.06,0.17-0.17
		c1.25,0.14,0,1.84-0.5,2.66C49.83,58.16,49.38,59,48.84,59.18z"/>
	<path class="st0" d="M53.15,57.1c-0.34,0.9-0.96,1.65-1.49,2.41c-0.51,0.73-0.86,1.69-1.66,2.16c-0.71-0.84,0.34-1.8,0.83-2.49
		c0.56-0.79,1.11-1.67,1.58-2.33c0.12,0.01,0.24,0.01,0.25-0.08C52.87,56.83,53.06,56.92,53.15,57.1z"/>
	<path class="st0" d="M46.35,60.5c0.1,2.91-0.34,6.99-0.08,10.55c0.12,1.62-0.02,3.24,0.17,4.57c0.09,0.62,0.47,0.97,0.25,1.49
		c-0.28,0.66-2.17,0.56-3.16,0.66c-1.69,0.19-5.18,0.2-5.4-0.5c-0.19-0.6,0.18-1.37,1.33-1.16c0.19-4.27,0.68-8.67,0.33-13.2
		c-0.66,1.18-1.32,2.27-2.41,3.4c-0.39,0.41-2.62,2.4-2.74,0.58c-0.05-0.78,1.25-1.53,1.83-2.16c1.24-1.37,2.01-2.68,2.57-4.65
		c-0.75-0.46-1.67-0.11-1.83-0.91c-0.06-0.33,0.21-1.15,0.91-1.08c1.51,0.16,5.51,1.54,7.56,0.75c0.53-0.2,0.74-0.58,1.25-0.5
		c0.48,0.08,0.78,0.56,0.75,1C47.63,60.01,47.08,60.04,46.35,60.5z M41.45,60.5c0.25,5.21,0.03,10.66-0.25,15.61
		c1.33,0.11,2.28-0.15,3.49-0.17c-0.02-5.05-0.4-10.32,0-15.28C43.53,60.7,42.4,60.69,41.45,60.5z"/>
	<path class="st0" d="M22.52,58.35c0.07,0.04,0.13,0.09,0.25,0.08c0.37,0.43-0.08,0.99-0.25,1.41c-1.33,3.22-1.41,9.9-0.75,14.2
		c0.13,0.84,0.9,1.82,0.25,2.49c-0.72-0.16-0.93-1.29-1.08-2.16c-0.44-2.55-0.66-6.2-0.42-9.63C20.69,62.38,21.53,58.97,22.52,58.35
		z"/>
	<path class="st0" d="M59.96,75.7c-0.81-0.68,0.22-1.54,0.5-2.24c1.09-2.81,1.24-8.66,0.25-11.87c-0.34-1.09-0.8-2.1-0.83-3.07
		c0.13,0,0.34-0.31,0.42-0.08c0.74,0.59,0.99,1.82,1.33,2.99c0.93,3.18,0.8,8.82-0.17,11.87C61.16,74.24,60.69,75.46,59.96,75.7z"/>
	<path class="st0" d="M54.48,58.93c-0.58,2.13-2.22,3.46-3.49,4.98c-0.42,0.5-0.61,1.3-1.33,1.5c-0.68-0.53,0.08-1.31,0.42-1.74
		c1.21-1.55,2.86-3.02,3.74-4.9C54.14,58.72,54.35,58.79,54.48,58.93z"/>
	<path class="st0" d="M56.06,61.5c-0.07,0.8-0.79,1.32-1.25,1.83c-1.38,1.54-2.94,3-4.4,4.57c0.05,0.52-0.24,1.07-0.91,0.83
		c-0.46-0.85,0.41-1.62,0.91-2.16c0.53-0.57,1.16-1.12,1.66-1.66c1.15-1.24,2.33-2.55,3.4-3.57C55.78,61.29,55.88,61.43,56.06,61.5z
		"/>
	<path class="st0" d="M19.03,69.31c-0.37-0.26-0.1-0.65-0.08-1.08c0.07-1.5-0.12-3.63,0.08-5.07c0.05-0.12,0.13-0.2,0.25-0.25
		c0.89-0.15,0.58,2.19,0.58,3.4C19.86,67.83,20.1,69.37,19.03,69.31z"/>
	<path class="st0" d="M64.36,64.24c0.02,1.05,0.24,1.74,0.33,2.99c0.1,1.42,0.16,3.8-0.66,3.74c-0.58-0.05-0.27-0.71-0.25-1.16
		c0.08-1.35-0.26-4.33-0.08-5.4C63.62,64.05,64.22,64.13,64.36,64.24z"/>
	<path class="st0" d="M47.51,78.61c-0.16-0.98,0.88-1.45,1.49-1.91c0.66-0.5,1.44-0.92,2.08-1.41c1.4-1.08,2.89-2.16,4.07-3.32
		c1.51,0.18-0.3,1.41-0.75,1.83c-1.46,1.37-3.25,2.36-4.9,3.57C48.88,77.82,48.29,78.82,47.51,78.61z"/>
	<path class="st0" d="M53.32,76.86c-0.24,0.8-1.17,0.78-1.74,1.08c-1.7,0.91-3.19,2.57-5.31,3.16c-0.08-0.11-0.14-0.25-0.25-0.33
		c0.04-0.66,0.59-0.61,1-0.83c1.68-0.93,3.96-2.58,5.56-3.41C52.72,76.45,53.16,76.49,53.32,76.86z"/>
	<path class="st0" d="M51.33,84.17c0.08,0.66-0.66,1.14-1.25,1.41c-1.53,0.71-3.88,1.88-5.73,2.08c-0.7,0.07-1.46,0.05-1.5-0.41
		c-0.04-0.64,0.78-0.42,1.41-0.5c2.16-0.27,4.97-1.7,6.48-2.74C51.05,83.95,51.19,84.06,51.33,84.17z"/>
</g>
</svg>
