<?xml version="1.0" encoding="utf-8"?>
<!-- Generator: Adobe Illustrator 23.0.1, SVG Export Plug-In . SVG Version: 6.00 Build 0)  -->
<svg version="1.1" id="Object" xmlns="http://www.w3.org/2000/svg" xmlns:xlink="http://www.w3.org/1999/xlink" x="0px" y="0px"
	 viewBox="0 0 194.66 199.34" style="enable-background:new 0 0 194.66 199.34;" xml:space="preserve">
<style type="text/css">
	.st0{fill:#4F2C1D;}
</style>
<g>
	<path class="st0" d="M28.5,161.93c0.02,1.99-0.05,3.96-0.24,5.95c-0.2,1.95-0.75,3.94-0.64,5.9c0.03,0.47,0.63,0.52,0.79,0.11
		c1.4-3.49,0.94-8.28,0.81-11.96C29.21,161.46,28.5,161.46,28.5,161.93z"/>
	<path class="st0" d="M35.99,77.75c0.33,0,0.33-0.52,0-0.52C35.66,77.24,35.66,77.75,35.99,77.75z"/>
	<path class="st0" d="M31.58,164.99c0.01-0.43,0.01-0.85,0.02-1.28c0.01-0.4-0.59-0.39-0.61,0c-0.01,0.15-0.02,0.3-0.03,0.45
		c-0.19-0.28-0.39-0.56-0.55-0.88c-0.15-0.3-0.72-0.18-0.67,0.18c0.13,1.03,0.49,2.06,1.07,2.95c-0.07,1.02-0.13,2.04-0.2,3.06
		c-0.11,1.66-0.46,3.4-0.06,5.02c0.08,0.34,0.55,0.3,0.65,0c0.52-1.57,0.31-3.38,0.33-5.02c0.01-0.72,0.02-1.43,0.03-2.15
		c0.54,0.54,1.19,0.96,1.96,1.18c0.56,0.16,1.01-0.58,0.58-0.99C33.21,166.67,32.33,165.89,31.58,164.99z"/>
	<path class="st0" d="M175.07,107.28c-0.19-0.03-0.37-0.06-0.56-0.08V85.64c0-5.52-3.46-10.23-8.32-12.12
		c0.64-0.83,1.36-1.63,1.75-2.47c0.48-1.02,0.56-1.99,0.63-3.11c0.34-5.12,0.22-10.33,0.3-15.46c0.03-2,0.38-4.73-1.38-6.19
		c-0.71-0.59-1.64-0.91-2.64-1.06c-0.1-0.1-0.28-0.13-0.4-0.06c-1.75-0.2-3.67,0.05-5.09,0.26c-0.18,0.03-0.25,0.16-0.26,0.31
		c-0.09-0.08-0.18-0.15-0.27-0.23c0.34-0.09,0.68-0.18,1.02-0.27c0.6-0.16,0.97-1.02,0.43-1.48c-7.95-6.87-16.23-13.35-24.82-19.41
		c-4.51-3.17-9.09-6.27-13.78-9.15c-3.66-2.25-5.48-1.34-9.12,0.65c-9.19,5.02-17.38,11.63-25.29,18.43
		c-8.37,7.19-16.67,14.45-24.99,21.7c-1.48,1.29-2.98,2.57-4.48,3.85c-0.07-0.02-0.14-0.04-0.22-0.05c-3.3-0.48-6.34-0.13-9.22,0.72
		c-0.23-0.18-0.65-0.09-0.78,0.24c-5.59,1.82-10.62,5.45-15.88,8.53c-3.5,2.05-8.2,3.06-11.17,5.9c-2.95,2.82-3.1,6.88-2.76,10.69
		c0,0,0,0,0,0v78.78c0,7.18,5.84,13.02,13.02,13.02h130.71c7.18,0,13.02-5.84,13.02-13.02v-27.67c1.39-0.69,2.63-1.64,3.59-2.98
		C181.35,129.43,185.12,105.74,175.07,107.28z M169.38,134.28c-0.22-1.6-0.39-3.2-0.44-4.83c-0.02-0.61-0.9-0.6-0.94,0
		c-0.13,2.16-0.13,4.35,0.09,6.5c-0.6,0.11-1.23,0.21-1.86,0.31c0.1-0.19,0.13-0.39,0.08-0.6c-0.02-0.25-0.04-0.5-0.06-0.74
		c-0.04-0.5-0.08-0.99-0.12-1.49c-0.08-0.99-0.15-1.98-0.22-2.98c-0.02-0.3-0.46-0.31-0.47,0c-0.02,1.32-0.03,2.65-0.06,3.97
		c-0.01,0.62-0.13,1.33-0.06,1.98c-0.16,0.02-0.33,0.05-0.49,0.07c-0.18,0.03-0.37,0.05-0.55,0.07c-0.01-0.03-0.02-0.06-0.03-0.09
		c-0.05-0.08-0.14-0.15-0.23-0.18c0.03-0.12,0.03-0.26-0.03-0.42c-0.01-0.17-0.01-0.35-0.02-0.52c-0.02-0.61-0.04-1.21-0.06-1.82
		c-0.04-1.13-0.07-2.26-0.11-3.38c-0.01-0.38-0.58-0.38-0.59,0c-0.06,1.39-0.12,2.78-0.17,4.17c-0.03,0.62-0.28,1.7-0.09,2.43
		c-0.64,0.09-1.29,0.17-1.93,0.25c0.06-0.22,0.04-0.44,0.02-0.95c-0.02-0.58-0.04-1.17-0.06-1.75c-0.04-1.17-0.08-2.34-0.12-3.51
		c-0.02-0.51-0.79-0.51-0.8,0c-0.03,1.66-0.07,3.31-0.1,4.97c-0.01,0.39-0.08,0.89-0.09,1.39c-0.71,0.08-1.41,0.16-2.12,0.24
		c-0.07-1.86-0.2-3.71-0.33-5.57c-0.04-0.52-0.81-0.53-0.81,0c-0.01,1.9-0.02,3.8,0.04,5.69c-0.78,0.08-1.56,0.16-2.34,0.23
		c-0.08-0.1-0.18-0.16-0.29-0.18c-0.2-0.69-0.11-1.96-0.15-2.43c-0.07-0.88-0.15-1.76-0.22-2.64c-0.03-0.39-0.6-0.4-0.61,0
		c-0.02,1.17-0.04,2.35-0.06,3.52c-0.01,0.48-0.15,1.24-0.07,1.85c-0.42,0.04-0.84,0.08-1.26,0.12c-0.01-0.03,0-0.04-0.01-0.07
		c-0.05-0.14-0.17-0.25-0.31-0.28c-0.29-0.67-0.31-1.88-0.37-2.45c-0.1-0.89-0.13-1.79-0.13-2.69c0-0.44-0.63-0.42-0.67,0
		c-0.13,1.42-0.14,2.83,0.01,4.25c0.05,0.46,0.06,0.95,0.23,1.33c-1.12,0.09-2.23,0.17-3.35,0.24c-0.43,0.03-0.89,0.07-1.38,0.11
		c0-0.62-0.09-1.26-0.13-1.88c-0.06-1.02-0.07-2.04-0.05-3.06c0.01-0.4-0.58-0.39-0.61,0c-0.13,1.5-0.44,3.45-0.14,5.03
		c-0.58,0.06-1.19,0.12-1.81,0.18c0.05-1.4-0.11-2.85-0.16-4.21c-0.01-0.35-0.53-0.35-0.55,0c-0.05,1.39-0.21,2.87-0.16,4.29
		c-0.78,0.07-1.59,0.13-2.39,0.16c0.12-1.37,0.1-2.77,0.04-4.13c-0.01-0.26-0.4-0.26-0.41,0c-0.03,1.41-0.2,2.78-0.38,4.16
		c-0.56,0.01-1.11,0.01-1.65,0c0.05-0.51,0.02-1.03,0.03-1.55c0.03-1.09,0.05-2.18,0.08-3.27c0-0.21-0.29-0.19-0.31,0
		c-0.12,1.02-0.24,2.03-0.36,3.05c-0.07,0.56-0.19,1.16-0.21,1.74c-0.5-0.03-1-0.08-1.48-0.15c0.44-1.21,0.34-2.7,0.42-3.97
		c0.02-0.29-0.48-0.37-0.52-0.07c-0.17,1.26-0.55,2.68-0.39,3.96c-0.28-0.05-0.56-0.11-0.83-0.17c0.23-1.33,0.28-2.75,0.45-4.04
		c0.04-0.28-0.44-0.34-0.49-0.07c-0.21,1.25-0.56,2.59-0.73,3.89c-0.35-0.12-0.68-0.25-1-0.4c0.06-1.15,0.07-2.31,0.12-3.43
		c0.01-0.23-0.34-0.23-0.36,0c-0.1,1.01-0.26,2.05-0.37,3.08c-0.35-0.21-0.67-0.45-0.96-0.73c0.27-1.42,0.3-2.99,0.48-4.35
		c0.04-0.3-0.49-0.38-0.54-0.07c-0.15,1.01-0.3,2.02-0.45,3.04c-0.03,0.22-0.07,0.44-0.11,0.67c-0.05-0.06-0.1-0.11-0.14-0.18
		c-0.37-0.56-0.67-1.14-0.95-1.74c0.31-1.09,0.5-2.24,0.76-3.32c0.08-0.33-0.43-0.47-0.51-0.14c-0.2,0.8-0.46,1.63-0.67,2.46
		c-0.29-0.77-0.52-1.56-0.69-2.37c0.05-0.68,0.09-1.35,0.14-2.01c0.02-0.21-0.31-0.21-0.33,0c-0.02,0.19-0.04,0.38-0.06,0.57
		c-0.15-1.09-0.22-2.2-0.23-3.32c-0.03-4.49,3.18-6.97,7.16-8.53c4.63-1.82,9.66-2.39,14.56-2.99c4.15-0.51,8.33-0.98,12.36-2.1
		c4.33-1.21,12.67-5.01,16.11-1.07c1.71,3.68,1.7,7.95,1.36,11.93c-0.27,3.18-1.08,5.67-2.57,7.8c-0.13-0.24-0.26-0.48-0.39-0.72
		c-0.15-0.28-0.64-0.09-0.53,0.22c0.14,0.39,0.28,0.77,0.42,1.16c-0.38,0.48-0.8,0.94-1.25,1.38c-0.08-0.19-0.16-0.37-0.23-0.56
		c-0.21-0.61-0.37-1.23-0.48-1.87c-0.07-0.42-0.78-0.33-0.75,0.1c0.05,0.72,0.16,1.44,0.34,2.14c0.09,0.33,0.17,0.66,0.3,0.95
		c-0.27,0.23-0.56,0.46-0.85,0.69c-0.11-0.21-0.36-0.3-0.59-0.26c-0.18-1.31-0.36-2.63-0.54-3.94c-0.06-0.45-0.8-0.34-0.78,0.11
		c0.05,1.61,0.11,3.22,0.16,4.84c-0.31,0.1-0.63,0.19-0.95,0.27c0.03-0.26,0.06-0.52,0.07-0.79
		C169.98,134.45,169.66,134.25,169.38,134.28z M169.17,78.74c-1.22-0.89-2.59-1.58-4.02-2.01c-0.1-0.03-0.2-0.05-0.3-0.08
		c0.04-0.1,0.08-0.22,0.08-0.34c0-0.13,0.04-0.26,0.06-0.39C166.61,76.51,168.04,77.48,169.17,78.74z M79.96,47.68
		c0.14-0.17,0.07-0.39-0.06-0.49c0.6-0.72,1.24-1.36,1.91-1.91c0.52,0.87,1.15,1.76,0.75,2.83c-0.16,0.42-0.62,0.88-0.87,1.26
		c-0.52,0.81-1.02,1.67-1.17,2.64c-0.25,1.63,0.59,3.13,1.75,4.23c1.75,2.61,4.47,2.9,7.35,2.49c1.28,0,2.54-0.18,3.82-0.29
		c0.93-0.08,2.28,0.04,3.27,0.51c0.21,0.19,0.4,0.41,0.57,0.67c1.11,1.66,0.45,3.78-1.61,5.15c-1.55,1.03-3.48,1.62-5.29,1.62
		l-0.44,0l0.82,3.32l0.18,0.01c0.54,0.53,1.12,1.18,1.86,0.99c0.08,0.03,0.17,0.04,0.25,0.04c0.07-0.01,0.13-0.09,0.08-0.15
		c0.65-0.29,1.32-0.87,1.94-1.15c0.05-0.02,0.1-0.04,0.16-0.07c0.01,0,0.02,0,0.03,0c0.04,0,0.06-0.02,0.07-0.05
		c0.19-0.08,0.39-0.16,0.58-0.24c0.11,0.03,0.22,0.04,0.33,0.04c0.1,0,0.13-0.12,0.07-0.19c0.28-0.1,0.57-0.19,0.85-0.27l1.03,1.54
		c-3.05,1.41-6.51,1.93-9.83,1.23C77.35,69.17,73.04,56.33,79.96,47.68z M86.69,72.63h-0.24c-0.13-0.15-0.25-0.29-0.38-0.44
		c0.08,0.03,0.16,0.06,0.24,0.09C86.44,72.39,86.57,72.51,86.69,72.63z M78.54,66.97c1.45,2.23,3.32,4.18,5.5,5.66H52.4
		c8.16-7.96,16.26-16,24.68-23.68c-1.24,2.33-1.79,4.87-1.79,7.42C74.99,60.09,76.11,63.91,78.54,66.97z M96.3,68.25
		c0.08-0.04,0.15-0.08,0.23-0.13c0.14,0.08,0.28,0.17,0.42,0.24l0.02,0.03c-0.08,0.02-0.15,0.04-0.23,0.07
		c-0.11-0.08-0.25-0.12-0.38-0.18C96.34,68.27,96.32,68.26,96.3,68.25z M96.36,68.58c-0.19,0.06-0.37,0.12-0.56,0.19
		c-0.04-0.01-0.08-0.02-0.11-0.04c-0.06-0.03-0.11-0.06-0.17-0.09c0.17-0.08,0.33-0.16,0.49-0.24c0.08,0.04,0.15,0.08,0.23,0.11
		C96.29,68.53,96.32,68.56,96.36,68.58z M96.92,67.07l-0.29,0.18c-1.29,0.83-2.86,1.43-4.23,1.67c-0.03-0.02-0.06-0.03-0.08-0.05
		c-0.07-0.04-0.14,0.02-0.15,0.09c-0.3,0.04-0.59,0.07-0.87,0.08l-0.49-1.96c1.82-0.09,3.7-0.7,5.24-1.73
		c1.8-1.2,2.67-2.91,2.42-4.54c-0.03-0.54-0.24-1.06-0.57-1.5c-0.01-0.02-0.03-0.05-0.04-0.07c-1.18-1.77-3.11-2.22-6.47-1.54
		c-1.35,0.29-2.58,0.48-3.7,0.48c-1.38-0.2-2.9-0.71-4.15-1.49c-0.25-0.25-0.48-0.53-0.69-0.85c-1.65-2.48-1.13-5.57,1.34-7.86
		l0.21-0.2l-1.98-2.98c0.46-0.34,0.93-0.64,1.41-0.91l1.9,2.86l0.07-0.05c0.12,0.03,0.26-0.05,0.28-0.17
		c1.46-0.89,2.89-1.39,4.35-1.53l0.45,1.95c-0.94,0.09-2.61,0.36-4.49,1.61c-2.43,1.62-2.63,3.78-1.75,5.28
		c-0.13,0.04-0.09,0.26,0.06,0.26c0.04,0,0.07,0,0.11,0c1.24,1.76,3.14,1.75,6.64,1.06c4.29-0.87,6.73-0.18,8.44,2.39
		c1.99,2.99,0.75,6.32-1.37,8.3l-0.21,0.2l2,3.01c-0.48,0.31-0.98,0.6-1.49,0.86L96.92,67.07z M95.45,68.91
		c-0.14,0.06-0.29,0.12-0.43,0.18c-0.09-0.03-0.19-0.05-0.28-0.09c-0.01,0-0.02-0.01-0.02-0.01c0.18-0.07,0.35-0.14,0.52-0.21
		C95.31,68.82,95.38,68.86,95.45,68.91z M92.73,69.74c-0.08-0.04-0.16-0.08-0.24-0.13c0.16-0.03,0.31-0.06,0.47-0.09
		c0.05,0.03,0.11,0.06,0.16,0.09c0.15,0.08,0.31,0.18,0.48,0.25c-0.07,0.04-0.14,0.09-0.22,0.12
		C93.17,69.88,92.94,69.83,92.73,69.74z M92.98,70.16c-0.2,0.08-0.39,0.11-0.57,0.1c-0.15-0.06-0.3-0.11-0.46-0.15
		c-0.07-0.05-0.15-0.1-0.21-0.17c-0.09-0.08-0.18-0.15-0.28-0.21c0.2-0.01,0.4-0.02,0.61-0.05c0.16,0.11,0.32,0.21,0.49,0.3
		C92.68,70.04,92.83,70.11,92.98,70.16z M93.35,69.43c0.14-0.04,0.28-0.07,0.42-0.11c0.14,0.07,0.27,0.13,0.41,0.19
		c-0.09,0.06-0.18,0.11-0.27,0.17C93.73,69.58,93.53,69.51,93.35,69.43z M94.17,69.19c0.08-0.03,0.15-0.05,0.23-0.08
		c0.09,0.05,0.18,0.09,0.28,0.13c-0.05,0.02-0.1,0.04-0.16,0.07c-0.02,0.01-0.03,0.02-0.05,0.03
		C94.37,69.28,94.27,69.23,94.17,69.19z M81.61,54.94c-0.82-1.18-1.06-2.65-0.22-4.36c0.13-0.26,0.34-0.55,0.58-0.86
		C81.09,51.4,80.95,53.24,81.61,54.94z M83.15,48.05c0.1-0.21,0.17-0.42,0.19-0.62l0.16,0.25C83.38,47.8,83.26,47.93,83.15,48.05z
		 M85.04,43.32c0.22,0.09,0.43,0.2,0.59,0.39c-0.3-0.07-0.59-0.16-0.87-0.27C84.85,43.4,84.95,43.36,85.04,43.32z M86.18,45.25
		c-0.06,0-0.46-0.02-0.62,0l-0.5-0.76c0.22,0.12,0.45,0.22,0.7,0.29c0.14,0.04,0.31,0.09,0.47,0.1c0.05,0.13,0.11,0.26,0.17,0.38
		C86.32,45.26,86.25,45.26,86.18,45.25z M86.33,45.61c-0.13,0.07-0.26,0.14-0.39,0.21l-0.16-0.24c0.09,0,0.18,0.01,0.26,0.01
		C86.13,45.6,86.23,45.61,86.33,45.61z M85.85,44.5c-0.29-0.07-0.57-0.17-0.84-0.29c-0.04-0.02-0.08-0.01-0.11,0.01
		c-0.02-0.05-0.04-0.09-0.07-0.14c0.16,0.07,0.32,0.14,0.48,0.2c0.22,0.08,0.48,0.19,0.73,0.2c0.01,0.03,0.02,0.05,0.03,0.08
		C86,44.53,85.92,44.52,85.85,44.5z M85.4,44.03c-0.25-0.07-0.48-0.17-0.72-0.27c-0.02-0.04-0.04-0.09-0.07-0.13
		c0.37,0.17,0.77,0.3,1.17,0.33c0.01,0,0.01,0,0.02,0c0.04,0.06,0.07,0.13,0.1,0.19C85.74,44.11,85.56,44.08,85.4,44.03z
		 M86.72,54.67c-0.11-0.02-0.21-0.04-0.32-0.06c-0.06-0.03-0.12-0.06-0.17-0.09c0.02-0.01,0.03-0.02,0.04-0.03c0,0,0,0,0.01,0
		c0.19,0.01,0.38,0.02,0.57,0.02c0.07,0,0.08-0.11,0.01-0.12c-0.18-0.03-0.36-0.06-0.54-0.07c-0.06-0.01-0.1,0.04-0.1,0.09
		c-0.05,0-0.09,0.01-0.13,0.02c-0.12-0.08-0.23-0.17-0.34-0.27c0.44,0.02,0.89,0.03,1.32,0.02c0.19,0.15,0.39,0.28,0.6,0.39
		C87.35,54.58,87.04,54.62,86.72,54.67z M88.03,54.72c0.17,0.07,0.35,0.12,0.53,0.17c-0.27,0.02-0.51,0.02-0.74,0.01
		c-0.01-0.05-0.04-0.1-0.1-0.11c-0.02,0-0.04,0-0.05-0.01C87.78,54.77,87.9,54.75,88.03,54.72z M85.44,53.81
		c-0.04-0.05-0.08-0.11-0.12-0.16c-0.09-0.14-0.18-0.29-0.24-0.45c0.3,0.07,0.61,0.14,0.91,0.22c0.15,0.04,0.3,0.08,0.45,0.11
		c0.07,0.09,0.14,0.17,0.21,0.25C86.25,53.78,85.85,53.79,85.44,53.81z M86.03,53.21c-0.34-0.06-0.68-0.12-1.01-0.18c0,0,0,0,0,0
		c-0.06-0.16-0.1-0.32-0.13-0.49c0.22,0.1,0.45,0.19,0.68,0.25c0.15,0.04,0.32,0.08,0.5,0.1c0.06,0.12,0.12,0.24,0.19,0.35
		C86.18,53.23,86.11,53.22,86.03,53.21z M85.72,51.36c0,0.03,0,0.05,0,0.08c-0.09-0.01-0.18-0.02-0.27-0.03
		c-0.16-0.03-0.31-0.07-0.47-0.11c0.02-0.07,0.05-0.13,0.07-0.2C85.25,51.22,85.49,51.33,85.72,51.36z M85.17,50.85
		c0.04-0.08,0.08-0.16,0.13-0.24c0.13,0.05,0.31,0.09,0.48,0.08c-0.02,0.12-0.04,0.23-0.05,0.35c-0.06-0.01-0.13-0.02-0.19-0.04
		C85.41,50.96,85.29,50.91,85.17,50.85z M85.36,51.69c0.12,0.03,0.25,0.06,0.38,0.07c0.01,0.09,0.03,0.18,0.05,0.27
		c-0.29-0.06-0.58-0.11-0.86-0.22c-0.02-0.01-0.04-0.01-0.05-0.01c0.01-0.08,0.02-0.16,0.04-0.25
		C85.06,51.61,85.21,51.65,85.36,51.69z M85.89,52.42c0.01,0.05,0.03,0.1,0.04,0.14c-0.09-0.01-0.18-0.02-0.27-0.03
		c-0.28-0.05-0.55-0.14-0.81-0.24c0-0.06-0.01-0.12-0.01-0.18C85.17,52.25,85.53,52.39,85.89,52.42z M85.86,50.37
		c-0.02,0.01-0.04,0.01-0.06,0.02c-0.11,0.02-0.23,0.01-0.34-0.02c0.19-0.26,0.44-0.52,0.74-0.78
		C86.06,49.84,85.94,50.1,85.86,50.37z M99.83,65.96c-0.01-0.04-0.03-0.08-0.04-0.12c0.05,0,0.11,0,0.16,0
		C99.91,65.88,99.87,65.92,99.83,65.96z M99.9,67.22l-0.7-1.05c0.07-0.07,0.14-0.14,0.2-0.22C99.53,66.39,99.69,66.81,99.9,67.22z
		 M99.72,65.61C99.72,65.61,99.71,65.6,99.72,65.61c0.08-0.11,0.17-0.2,0.24-0.31c0,0,0,0,0.01,0c0.11,0.03,0.24,0.06,0.38,0.08
		c-0.05,0.06-0.1,0.12-0.15,0.18c-0.03,0-0.06,0.01-0.09,0.01C99.97,65.58,99.84,65.6,99.72,65.61z M100.13,65.07
		c0.05-0.07,0.1-0.14,0.15-0.21c0.15,0.01,0.31,0.03,0.47,0.04c-0.05,0.07-0.11,0.14-0.16,0.2c-0.04,0-0.07,0-0.11,0
		C100.35,65.11,100.24,65.09,100.13,65.07z M100.44,64.6c0.07-0.11,0.13-0.21,0.19-0.32c0.14,0.01,0.28,0.01,0.42,0.02
		c0.05,0,0.09,0,0.13,0c-0.08,0.11-0.16,0.23-0.24,0.34C100.78,64.61,100.61,64.6,100.44,64.6z M101.03,64.03c-0.09,0-0.18,0-0.27,0
		c0.04-0.08,0.08-0.15,0.12-0.23c0.14-0.01,0.29-0.03,0.43-0.04c0.08-0.01,0.16-0.01,0.24-0.03c-0.07,0.11-0.13,0.22-0.21,0.33
		C101.25,64.03,101.14,64.03,101.03,64.03z M101.3,63.49c-0.1,0.01-0.2,0.03-0.29,0.04c0.06-0.13,0.11-0.26,0.16-0.39
		c0.13,0.01,0.26,0.01,0.39,0c0.1,0,0.22-0.01,0.33-0.03c-0.06,0.13-0.13,0.27-0.2,0.4c0,0-0.01-0.01-0.01-0.01
		C101.54,63.44,101.43,63.47,101.3,63.49z M101.54,62.83c-0.09,0.01-0.19,0.02-0.28,0.02c0.06-0.17,0.1-0.35,0.15-0.52
		c0.26,0.01,0.5,0.05,0.76,0.09c-0.04,0.12-0.09,0.23-0.14,0.35C101.87,62.76,101.69,62.81,101.54,62.83z M102.14,61.98
		c-0.01,0.02-0.02,0.03-0.03,0.05c-0.21-0.04-0.43-0.05-0.64-0.03c0.02-0.1,0.03-0.19,0.04-0.29c0.13,0,0.26,0.01,0.39,0.01
		c0.15,0,0.31,0.03,0.44-0.03c-0.01,0.04-0.01,0.08-0.02,0.13c-0.01,0.04-0.03,0.09-0.04,0.13
		C102.25,61.91,102.17,61.92,102.14,61.98z M101.9,61.41c-0.11,0.01-0.23,0.02-0.34,0.03c0.01-0.13,0.02-0.26,0.02-0.39
		c0.15,0,0.29-0.01,0.44-0.01c0.14,0,0.31,0.02,0.42-0.07c-0.01,0.15-0.02,0.3-0.04,0.46c0,0,0,0,0,0
		C102.25,61.35,102.06,61.4,101.9,61.41z M102,60.73c-0.14,0.01-0.27,0.03-0.41,0.04c0-0.11-0.01-0.21-0.01-0.32
		c0.13-0.02,0.27-0.04,0.4-0.06c0.16-0.02,0.34-0.04,0.44-0.17c0.02,0.18,0.03,0.35,0.03,0.53C102.32,60.67,102.14,60.72,102,60.73z
		 M102.38,60.02c-0.14-0.09-0.32-0.03-0.47,0c-0.12,0.03-0.24,0.06-0.35,0.09c-0.02-0.14-0.03-0.29-0.06-0.43c0.07,0,0.14,0,0.22,0
		c0.17-0.01,0.36,0,0.48-0.14c0.06-0.07,0.04-0.19-0.05-0.23c-0.15-0.07-0.3,0-0.45,0.02c-0.09,0.01-0.18,0.02-0.27,0.02
		c-0.05-0.2-0.1-0.39-0.17-0.59c0.05,0,0.1,0,0.15,0c0.16,0,0.31,0.01,0.41-0.14c0.02-0.03,0.02-0.09-0.01-0.12
		c-0.11-0.14-0.26-0.11-0.42-0.09c-0.08,0.01-0.16,0.02-0.25,0.03c-0.09-0.21-0.18-0.43-0.3-0.64c0.18,0,0.37-0.04,0.51-0.13
		c0.02-0.01,0.03-0.03,0.05-0.05C101.88,58.37,102.24,59.16,102.38,60.02C102.38,60.02,102.38,60.02,102.38,60.02z M101.14,57.36
		c-0.17,0.06-0.32,0.11-0.49,0.12c-0.06-0.1-0.11-0.2-0.18-0.3c-0.09-0.14-0.19-0.27-0.29-0.41c0.11-0.01,0.22-0.01,0.33-0.02
		c0.08,0,0.16,0,0.23-0.03c0.16,0.2,0.32,0.41,0.47,0.62C101.19,57.35,101.16,57.36,101.14,57.36z M100.49,56.45
		c-0.16,0.03-0.32,0.05-0.48,0.08c-0.01,0-0.01,0.01-0.02,0.01c-0.22-0.27-0.44-0.51-0.68-0.74c0.01,0,0.01,0,0.01,0
		c0.2,0.02,0.4,0.05,0.59,0.01c0.11,0.1,0.21,0.21,0.32,0.32C100.32,56.24,100.41,56.35,100.49,56.45
		C100.5,56.45,100.5,56.45,100.49,56.45z M99.35,55.53c-0.1,0.01-0.15,0.12-0.12,0.2c-0.2-0.17-0.4-0.33-0.61-0.48
		c0.11-0.05,0.23-0.07,0.36-0.07c0.04,0,0.07-0.03,0.09-0.06c0.17,0.12,0.34,0.25,0.5,0.38C99.49,55.52,99.42,55.53,99.35,55.53z
		 M98.42,55.12c-1.05-0.66-2.32-0.98-3.85-0.99c0.06-0.01,0.11-0.02,0.17-0.02c1.53-0.16,2.92,0.12,4.11,0.87
		C98.7,55,98.56,55.04,98.42,55.12z M100.44,68.03c0.17,0.18,0.37,0.37,0.57,0.57c-0.04,0.03-0.08,0.06-0.13,0.09L100.44,68.03z
		 M101.31,68.39c-0.59-0.65-1.04-1.34-1.36-2.14c0.18-0.15,0.35-0.3,0.52-0.46c0.01-0.01,0.03-0.01,0.04-0.02
		c0.02-0.01,0.03-0.04,0.04-0.06c1.3-1.27,2.31-2.89,2.42-4.73c0.14-2.34-1.55-4.71-3.34-6.08c-1.81-1.39-4.12-1.43-6.26-0.94
		c-1.63,0.37-3.42,1.13-5.07,0.47c-0.22-0.09-0.42-0.19-0.6-0.3c0.03,0,0.06-0.01,0.08-0.01c0.14-0.02,0.18-0.24,0.02-0.27
		c-0.18-0.03-0.36-0.04-0.54-0.05c-0.09-0.08-0.18-0.16-0.26-0.25c0.03-0.04,0.02-0.11-0.03-0.13c-0.04-0.01-0.07-0.02-0.11-0.04
		c-0.13-0.17-0.25-0.35-0.34-0.53c0.06-0.05,0.06-0.16-0.02-0.19c-0.02-0.01-0.05-0.01-0.07-0.02c-0.03-0.09-0.06-0.17-0.09-0.26
		c0.07-0.07,0.05-0.2-0.06-0.24c-0.27-1.24,0.21-2.63,1.32-3.47c0.93-0.49,1.77-0.75,2.44-0.88c0.9,0.05,1.7,0.4,2.59,0.51
		c0.02,0,0.03-0.01,0.04-0.02c0.06,0.03,0.12,0.06,0.17,0.1c0.13,0.07,0.27-0.07,0.23-0.2c-0.15-0.47-0.26-0.95-0.28-1.45
		c-0.02-0.27,0.04-0.58-0.06-0.84c-0.23-0.62-1.19-1.24-1.68-1.64c-0.09-0.07-0.18-0.02-0.21,0.05l-0.15,0.01
		c-1.29,0.07-2.54,0.41-3.8,1.02c-0.16-0.4-0.37-0.79-0.56-1.18c-0.13-0.27-0.24-0.76-0.48-0.96c-0.05-0.04-0.13-0.07-0.2-0.11
		c7.17-2.59,16,1.43,19.74,8.86c2.73,5.44,1.95,10.9-2.51,15.13C102.38,67.54,101.85,67.98,101.31,68.39z M92.56,47.62
		c-0.32-0.24-0.65-0.46-0.97-0.68l-0.07-0.33c0.33,0.26,0.67,0.53,1.03,0.71c0,0,0,0,0,0c0.02,0.19,0.06,0.38,0.11,0.57
		c-0.04-0.02-0.09-0.05-0.13-0.07C92.59,47.8,92.64,47.68,92.56,47.62z M92.02,47.91c-0.28-0.11-0.56-0.21-0.86-0.28
		c0.06,0,0.12-0.01,0.17-0.01l0.23-0.02C91.71,47.71,91.87,47.82,92.02,47.91z M91.66,47.26c0.02,0.01,0.04,0.03,0.06,0.04
		C91.7,47.29,91.68,47.28,91.66,47.26L91.66,47.26z M91.43,46.25l-0.02-0.1c0.14,0.1,0.27,0.19,0.41,0.29
		c0.21,0.14,0.41,0.32,0.65,0.41c0.01,0,0.02,0,0.02,0c0.01,0.05,0.01,0.11,0.02,0.16C92.18,46.72,91.79,46.49,91.43,46.25z
		 M91.94,46.23c-0.21-0.14-0.41-0.27-0.62-0.41l-0.04-0.17c0.37,0.26,0.74,0.54,1.13,0.76c0.01,0.05,0.01,0.1,0.02,0.14
		C92.29,46.43,92.1,46.34,91.94,46.23z M91.3,45.42c-0.02-0.01-0.04-0.01-0.07-0.01l-0.07-0.33c0.28,0.18,0.56,0.35,0.86,0.5
		c0.12,0.15,0.23,0.31,0.3,0.48C91.99,45.84,91.64,45.64,91.3,45.42z M91.12,44.9l-0.05-0.23c0.17,0.16,0.36,0.32,0.54,0.49
		C91.44,45.07,91.28,44.98,91.12,44.9z M125.69,55.92c-5.69,3.06-11.02,6.67-15.7,11.06c-1.97,1.85-3.93,3.74-5.86,5.65h-3.62
		C108.24,65.89,116.76,60.62,125.69,55.92z M110.26,69.13c11.49-10.98,26.74-17.24,41.96-21.76c0.93,0.78,1.85,1.57,2.76,2.36
		c-16.88,4.56-34.69,10.86-47.64,22.9h-0.68C107.87,71.45,109.06,70.28,110.26,69.13z M120.68,65.04c-3.02,2.03-5.88,4.27-8.54,6.76
		c-0.29,0.27-0.58,0.55-0.87,0.83h-1.26C113.33,69.78,116.91,67.27,120.68,65.04z M154.69,52.1c0.78,0.66,1.55,1.32,2.32,1.99
		c-14.72,3.98-30.13,9.27-42.42,18.54h-0.71C125.25,62.4,139.99,56.44,154.69,52.1z M156.71,51.51c0.51-0.15,1.02-0.28,1.53-0.42
		c-0.18,0.46-0.32,0.93-0.39,1.4C157.48,52.16,157.1,51.83,156.71,51.51z M158.35,55.57c0.15,0.13,0.31,0.26,0.46,0.4
		c-13.69,3.7-27.99,8.54-39.82,16.66h-1.33C129.72,64.23,144.29,59.34,158.35,55.57z M160.02,57.48c0.47,0.4,0.93,0.8,1.4,1.2
		c-12.09,3.26-24.64,7.43-35.55,13.95h-3.56C133.72,65.39,147.08,60.96,160.02,57.48z M166.15,69.06c-0.27-0.37-0.62-0.72-0.99-1.03
		c0.18-0.75,0.34-1.51,0.46-2.26c0.28,0.26,0.58,0.52,0.9,0.73c-0.02,0.49-0.06,0.97-0.12,1.44
		C166.34,68.37,166.25,68.72,166.15,69.06z M164.61,71.71c-0.16-0.17-0.34-0.32-0.52-0.47c0.22-0.51,0.42-1.04,0.6-1.58
		c0.27,0.27,0.56,0.51,0.88,0.7C165.3,70.82,164.97,71.24,164.61,71.71z M158.23,67.03c-0.17-0.11-0.33-0.22-0.49-0.33
		c-0.07-0.04-0.14-0.06-0.2-0.06c0.05-0.07,0.09-0.15,0.14-0.22c0.42-0.12,0.84-0.24,1.26-0.37
		C158.7,66.38,158.46,66.7,158.23,67.03z M157.17,67.22c0.03,0.07,0.07,0.14,0.14,0.2c0.14,0.1,0.27,0.21,0.4,0.32
		c-0.35,0.49-0.69,0.98-1.02,1.48c-0.18-0.14-0.35-0.29-0.53-0.43C156.51,68.27,156.85,67.74,157.17,67.22z M154.87,70.75
		c0.1-0.14,0.19-0.3,0.29-0.43c0.18-0.26,0.35-0.53,0.53-0.8c0.17,0.17,0.34,0.33,0.51,0.5c-0.25,0.4-0.48,0.81-0.71,1.22
		C155.28,71.07,155.07,70.91,154.87,70.75z M151.93,69.27c0.16,0.15,0.31,0.3,0.47,0.45c-0.17,0.27-0.34,0.53-0.51,0.8
		c-0.14,0.22-0.3,0.44-0.46,0.67c-0.18-0.12-0.37-0.23-0.56-0.34C151.22,70.32,151.58,69.79,151.93,69.27z M152.28,71.71
		c0.13-0.25,0.25-0.5,0.38-0.74c0.12-0.22,0.24-0.44,0.37-0.65c0.2,0.19,0.4,0.38,0.61,0.58c-0.31,0.36-0.62,0.72-0.91,1.1
		C152.57,71.89,152.43,71.8,152.28,71.71z M155.62,68.34c-0.35-0.28-0.69-0.56-1.04-0.84c0.02-0.06,0.04-0.11,0.03-0.16
		c0.73-0.23,1.46-0.44,2.19-0.66C156.42,67.24,156.02,67.79,155.62,68.34z M154.26,68.11c0.3,0.29,0.59,0.58,0.89,0.87
		c-0.27,0.36-0.53,0.71-0.8,1.06c-0.04,0.05-0.09,0.11-0.13,0.16c-0.26-0.21-0.51-0.42-0.77-0.63
		C153.71,69.08,153.98,68.6,154.26,68.11z M152.82,69.06c-0.17-0.14-0.35-0.29-0.52-0.43c0.03-0.22-0.17-0.43-0.38-0.43
		c0.61-0.2,1.22-0.39,1.83-0.58C153.44,68.1,153.13,68.58,152.82,69.06z M151.69,68.32c-0.53,0.68-1.07,1.36-1.6,2.04
		c-0.57-0.33-1.14-0.64-1.72-0.94c-0.01,0-0.01,0-0.02-0.01c1.14-0.4,2.28-0.79,3.43-1.17C151.74,68.26,151.71,68.28,151.69,68.32z
		 M148.68,72.12c-0.33-0.23-0.67-0.45-1.01-0.66c0.16-0.3,0.32-0.59,0.47-0.89c0.07-0.13,0.06-0.26,0.01-0.36
		c0.47,0.28,0.93,0.57,1.38,0.86c-0.12,0.15-0.23,0.3-0.35,0.45C149.02,71.71,148.85,71.92,148.68,72.12z M147.84,69.96
		c-0.15-0.03-0.31,0.02-0.41,0.19c-0.17,0.28-0.34,0.56-0.52,0.85c-0.37-0.22-0.75-0.43-1.12-0.64c-0.01-0.01-0.02-0.01-0.03-0.02
		c0.69-0.25,1.37-0.5,2.06-0.74C147.77,69.71,147.76,69.85,147.84,69.96z M145.36,71.18c0.37,0.26,0.72,0.55,0.98,0.75
		c-0.14,0.23-0.27,0.45-0.41,0.68c0,0.01-0.01,0.01-0.01,0.02h-1.11C145.02,72.15,145.2,71.67,145.36,71.18z M147.12,72.48
		c0.07,0.05,0.15,0.1,0.22,0.15h-0.3C147.06,72.58,147.09,72.53,147.12,72.48z M149.69,72.63c0.1-0.16,0.2-0.33,0.31-0.48
		c0.12-0.17,0.23-0.35,0.35-0.52c0.18,0.13,0.37,0.25,0.55,0.38c-0.12,0.2-0.23,0.41-0.31,0.63H149.69z M153.55,72.63
		c0.28-0.34,0.53-0.71,0.78-1.07c0.27,0.26,0.54,0.53,0.81,0.79c0.05,0.09,0.12,0.16,0.21,0.2c0.03,0.03,0.06,0.06,0.09,0.08H153.55
		z M156.92,72.63c-0.19-0.27-0.42-0.53-0.68-0.76c0.27-0.34,0.54-0.68,0.79-1.04c0.14,0.13,0.27,0.27,0.41,0.4
		c0.45,0.44,0.91,0.93,1.39,1.4H156.92z M158.22,70.45c-0.2-0.17-0.41-0.33-0.61-0.5c0.33-0.51,0.65-1.02,0.97-1.54
		c0.62,0.49,1.23,0.99,1.83,1.5c-0.29,0.52-0.57,1.05-0.86,1.58C159.1,71.14,158.64,70.79,158.22,70.45z M159.07,67.59
		c0.35-0.6,0.7-1.2,1.05-1.79c0.03,0.03,0.06,0.07,0.1,0.1c0.58,0.37,1.13,0.77,1.67,1.19c-0.31,0.6-0.61,1.2-0.93,1.8
		C160.34,68.44,159.71,68.01,159.07,67.59z M164.87,65.13c-0.16,0.74-0.36,1.47-0.59,2.2c-0.05-0.04-0.1-0.08-0.15-0.12
		c-0.2-0.16-0.41-0.29-0.61-0.44c0.3-0.67,0.59-1.36,0.85-2.05C164.54,64.85,164.7,64.99,164.87,65.13z M163,64.92
		c-0.17,0.36-0.37,0.72-0.55,1.08c-0.35-0.23-0.71-0.43-1.07-0.63C161.92,65.21,162.46,65.06,163,64.92z M162.94,67.96
		c0.18,0.15,0.36,0.29,0.54,0.45c0.11,0.1,0.22,0.21,0.33,0.32c-0.01,0.03-0.02,0.06-0.03,0.09c-0.21,0.54-0.46,1.06-0.72,1.57
		c-0.34-0.25-0.69-0.5-1.02-0.75C162.35,69.09,162.65,68.53,162.94,67.96z M162.79,60.99c-0.25-0.21-0.49-0.42-0.74-0.63
		c0.38-0.1,0.75-0.2,1.12-0.3C163.05,60.36,162.92,60.67,162.79,60.99z M162.08,62.7c-0.1,0.23-0.19,0.47-0.29,0.7
		c-0.23,0.06-0.47,0.13-0.7,0.19c-0.14-0.08-0.34-0.08-0.46,0.09c-0.01,0.01-0.02,0.03-0.03,0.04c-8.41,2.33-16.99,5.14-25.03,8.9
		h-6.06c9.53-5.23,20.1-8.81,30.49-11.71C160.69,61.51,161.38,62.1,162.08,62.7z M126.03,75.3c-0.01,0.12-0.01,0.23-0.02,0.35
		c-0.01,0.11-0.01,0.22-0.02,0.32c-0.7,0-1.4,0.01-2.09,0.01c0.04-0.22,0.07-0.45,0.07-0.68H126.03z M126.98,75.97
		c-0.01-0.1-0.01-0.21-0.02-0.32c-0.01-0.12-0.01-0.23-0.02-0.35h1.45c-0.01,0.22,0,0.44,0.04,0.66c-0.44,0-0.88,0.01-1.31,0.01
		C127.07,75.97,127.03,75.97,126.98,75.97z M129.24,75.95c-0.03-0.06-0.07-0.1-0.09-0.16c-0.06-0.16-0.08-0.32-0.08-0.49h1.5
		c0.02,0.22,0.07,0.43,0.09,0.64c0,0,0,0,0,0C130.19,75.95,129.72,75.95,129.24,75.95z M131.71,75.94
		c-0.01-0.04-0.02-0.09-0.03-0.13c-0.04-0.15-0.08-0.33-0.12-0.5h10.15c-0.06,0.09-0.13,0.17-0.19,0.26
		c-0.08,0.11-0.1,0.22-0.08,0.31C138.19,75.9,134.95,75.92,131.71,75.94z M140.03,72.63c1.48-0.63,2.97-1.24,4.48-1.82
		c-0.27,0.64-0.59,1.24-0.94,1.82H140.03z M143.13,75.3h18.36c0.44,0,0.88,0.04,1.3,0.09c-0.01,0.24,0,0.5,0.03,0.79
		c-4.95-0.91-10.32-0.37-15.23-0.34c-1.67,0.01-3.34,0.02-5.01,0.03C142.78,75.69,142.96,75.5,143.13,75.3z M161.84,72.65
		c-0.12,0-0.23-0.02-0.35-0.02h-0.65c-0.15-0.16-0.32-0.3-0.49-0.45c0.35-0.47,0.7-0.94,1.02-1.43c0.33,0.3,0.66,0.61,1,0.92
		C162.19,71.99,162.01,72.32,161.84,72.65z M163.43,72.58c0.12,0.09,0.24,0.18,0.36,0.26c-0.15-0.03-0.31-0.05-0.46-0.07
		C163.36,72.71,163.39,72.64,163.43,72.58z M166.93,51.61c-0.09,3.72-0.24,7.45-0.36,11.17c-0.02,0.63-0.02,1.29-0.02,1.96
		c-0.2-0.14-0.41-0.27-0.59-0.4c-0.05-0.03-0.09-0.07-0.14-0.1c0.08-0.76,0.14-1.5,0.18-2.2c0.02-0.39-0.56-0.37-0.6,0
		c-0.04,0.37-0.1,0.72-0.15,1.09c-0.04-0.05-0.07-0.1-0.12-0.15c-0.03-0.03-0.06-0.05-0.09-0.08c0.67-2.03,1.2-4.09,1.61-6.11
		c0.07-0.34-0.44-0.49-0.52-0.14c-0.51,1.95-1.16,3.79-1.9,5.56c-0.16-0.14-0.32-0.27-0.48-0.41c1.69-3.41,2.49-7.42,2.92-11.04
		c0.04-0.33-0.54-0.41-0.59-0.08c-0.44,2.78-1.27,5.28-2.24,7.75c-0.16-0.14-0.32-0.27-0.48-0.41c1.37-2.83,2.03-6.3,2.78-9.45
		C166.66,49.23,166.96,50.19,166.93,51.61z M164.64,47.45c0.35,0.15,0.68,0.33,0.96,0.56c-1.09,3.01-2.48,6.25-2.99,9.37
		c-0.15-0.13-0.3-0.26-0.46-0.39C163.32,53.89,164.13,50.71,164.64,47.45z M162.44,48.57c-0.03-0.02-0.05-0.04-0.08-0.07
		c0.08-0.54,0.15-1.09,0.21-1.63c0.47,0.09,0.93,0.2,1.36,0.32c-0.59,2.64-1.35,5.21-2.27,7.75c-0.19,0.25-0.34,0.49-0.45,0.74
		c-0.48-0.41-0.96-0.82-1.45-1.24c0-0.2-0.07-0.4-0.25-0.55c-0.3-0.26-0.61-0.52-0.91-0.78c0.14-0.53,0.24-1.07,0.39-1.62
		c0.06-0.23,0.15-0.45,0.23-0.68c0.66-0.18,1.32-0.37,1.98-0.54c-0.34,1.26-0.74,2.51-1.2,3.78c-0.16,0.42,0.55,0.72,0.73,0.31
		c0.01-0.03,0.03-0.06,0.04-0.1c0,0,0,0,0,0c0,0,0,0,0-0.01c0.59-1.36,1.02-2.79,1.32-4.25C162.64,49.79,162.94,49.01,162.44,48.57z
		 M161.9,46.74c-0.06,0.41-0.1,0.82-0.18,1.22c-0.17-0.14-0.34-0.29-0.5-0.43c0.22-0.27,0.44-0.53,0.66-0.79
		C161.89,46.74,161.89,46.74,161.9,46.74z M161.27,46.62c-0.15,0.19-0.29,0.39-0.44,0.58c-0.37-0.32-0.75-0.64-1.12-0.95
		C160.23,46.4,160.75,46.52,161.27,46.62z M159.94,48.76c-0.03,0.01-0.07,0.02-0.1,0.03c-0.1-0.06-0.24-0.06-0.33,0.07
		c-0.01,0.01-0.01,0.02-0.02,0.03c-0.69,0.19-1.39,0.38-2.08,0.57c-1.04-0.9-2.09-1.8-3.15-2.69c0.84-0.24,1.68-0.48,2.52-0.71
		C157.83,46.95,158.89,47.85,159.94,48.76z M157.79,43.94c-10.32,2.79-20.99,6.23-30.68,11.24c4.74-2.46,9.58-4.77,14.48-7.07
		c0.32-0.15,0.42-0.52,0.37-0.84c-0.59-3.82,0.57-7.2,3.35-9.89c0.23-0.22,0.29-0.69,0.02-0.92c-4.58-3.76-8.96-7.78-13.33-11.78
		c-0.47-0.43-1.12-1.17-1.83-1.94C139.79,29.26,148.98,36.35,157.79,43.94z M131.7,26.03c1.9,1.74,3.81,3.48,5.73,5.19
		c1.04,0.92,6.29,4.37,6.13,6.02c-0.05,0.52-1.9,2.66-2.14,3.18c-0.73,1.57-0.76,3.05-1.13,4.69c0.59-2.61,0.02,1.4,0.05,1.35
		c-0.63,1.23-2.28,1.57-3.42,2.09c-2.41,1.1-4.8,2.22-7.19,3.37c-8.53,4.12-16.75,8.81-24.26,14.59c-0.17,0.13-0.34,0.27-0.51,0.41
		c10.98-12.47-6.48-29.73-19.68-25.22c3.33-2.84,6.73-5.62,10.22-8.28c4.3-3.29,8.7-6.44,13.19-9.46c2.6-1.75,4.31-2.34,7.37-1.85
		c1.62,0.26,3.25,0.21,4.87,0.01c1.79-0.22,3.69-1.1,5.4-0.6C128.36,22.11,130.14,24.6,131.7,26.03z M64.02,56.84
		c9.9-8.63,19.63-17.5,29.77-25.85c5.17-4.26,10.52-8.31,16.26-11.76c2.54-1.53,6.29-4.62,9.33-3.45c2.22,0.85,4.41,2.55,6.47,4.02
		c-0.97,0.12-2.14,0.61-2.91,0.76c-2.93,0.57-5.15,0.45-8.08,0.01c-1.3-0.2-2.04-0.42-3.32,0.03c-2.05,0.72-4.18,2.65-5.95,3.86
		c-2.26,1.54-4.49,3.12-6.7,4.73C83.53,40.39,69.93,53.38,56.45,66.64c-2.02,1.74-4.03,3.49-6,5.29c-0.27,0.25-0.51,0.48-0.74,0.7
		h-4.05c0.46-0.41,0.92-0.82,1.38-1.22c0.22,0.04,0.47-0.01,0.64-0.16c0.28-0.25,0.49-0.51,0.67-0.8c0.37,0.11,0.74,0.18,1.12,0.18
		c0.42,0,0.62-0.52,0.34-0.81c-0.14-0.15-0.3-0.28-0.47-0.41c0.38-0.33,0.76-0.66,1.14-0.98c0.26-0.02,0.46-0.21,0.52-0.45
		c0.65-0.56,1.3-1.12,1.95-1.68c0.07,0.01,0.13,0.02,0.2,0.02c0.33,0.01,0.58-0.33,0.53-0.64c0.28-0.24,0.56-0.48,0.84-0.72
		c0.25,0.05,0.49,0.07,0.74,0.01c0.31-0.07,0.46-0.47,0.3-0.73c-0.02-0.04-0.06-0.06-0.08-0.09C58.35,61.71,61.2,59.29,64.02,56.84z
		 M43.87,71.55c0.01,0.07,0.04,0.14,0.07,0.19c-0.3,0.27-0.6,0.55-0.9,0.83c-0.04-0.12-0.11-0.23-0.25-0.32
		c-0.14-0.1-0.3-0.18-0.45-0.26c-0.05-0.13-0.16-0.23-0.3-0.26c0.08-0.44,0.16-0.89,0.24-1.34c0.5,0.34,1.02,0.7,1.57,0.95
		C43.86,71.4,43.86,71.48,43.87,71.55z M34.75,72.63c0.02-0.24,0.05-0.48,0.08-0.71c0.02-0.18,0.04-0.36,0.07-0.54
		c0.45,0.27,0.89,0.56,1.34,0.82c-0.01,0.14-0.04,0.28-0.04,0.42H34.75z M35.47,69.24c0.34,0.27,0.68,0.56,1.05,0.84
		c-0.02,0.12-0.03,0.24-0.05,0.37c-0.04,0.27-0.08,0.54-0.13,0.81c-0.45-0.22-0.9-0.43-1.35-0.65c0.05-0.39,0.1-0.78,0.15-1.17
		C35.25,69.38,35.36,69.31,35.47,69.24z M38.12,67.68c0.31,0.22,0.62,0.43,0.93,0.63c-0.17,0.63-0.31,1.26-0.4,1.89
		c-0.42-0.22-0.84-0.44-1.24-0.68c0.04-0.5,0.08-0.99,0.12-1.49C37.73,67.91,37.93,67.79,38.12,67.68z M42.49,69.01
		c0.08-0.56,0.14-1.12,0.19-1.68c0.4,0.26,0.8,0.5,1.2,0.75c-0.05,0.52-0.08,1.04-0.09,1.55C43.35,69.4,42.9,69.21,42.49,69.01z
		 M40.78,71.21c-0.3-0.13-0.59-0.26-0.89-0.39c0.03-0.3,0.06-0.6,0.1-0.91c0.04-0.3,0.09-0.6,0.13-0.9c0.33,0.21,0.67,0.42,1,0.62
		C41.01,70.16,40.89,70.68,40.78,71.21z M38.58,71.6c0.01,0.27,0.04,0.53,0.08,0.78c-0.46-0.24-0.93-0.46-1.39-0.68
		c0.02-0.33,0.04-0.66,0.06-0.99C37.74,71.02,38.15,71.32,38.58,71.6z M39.53,72.63c0.05-0.13,0.08-0.26,0.11-0.39
		c0.25,0.14,0.5,0.27,0.76,0.39H39.53z M45.18,70.64c-0.05-0.06-0.12-0.12-0.18-0.18c0.1-0.52,0.18-1.04,0.23-1.57
		c0.06,0.03,0.11,0.07,0.17,0.1c0.32,0.18,0.66,0.38,1,0.57C46,69.92,45.59,70.28,45.18,70.64z M50.68,62.15
		c0.03,0.03,0.05,0.05,0.08,0.08c-0.13,0.03-0.24,0.12-0.26,0.28c-0.04,0.3-0.09,0.6-0.14,0.9c-0.54-0.27-1.08-0.53-1.61-0.8
		C49.38,62.43,50.03,62.28,50.68,62.15z M52.38,64.41c-0.35-0.2-0.72-0.38-1.09-0.55c0-0.35,0.01-0.7,0.02-1.04
		c0.4,0.39,0.83,0.75,1.3,1.07c0.07,0.05,0.14,0.1,0.21,0.15C52.67,64.17,52.53,64.29,52.38,64.41z M49.91,64.79
		c0.07,0.04,0.14,0.09,0.21,0.14c-0.06,0.5-0.11,1-0.1,1.5c-0.01,0.01-0.02,0.02-0.04,0.03c-0.54-0.42-1.18-0.76-1.74-1.08
		c0.03-0.52,0.06-1.04,0.09-1.56C48.86,64.14,49.39,64.47,49.91,64.79z M48.71,67.56c-0.21,0.18-0.41,0.35-0.62,0.53
		c0.02-0.33,0.04-0.66,0.06-0.99C48.33,67.26,48.52,67.41,48.71,67.56z M46.75,68.09c-0.32-0.13-0.63-0.26-0.92-0.4
		c-0.16-0.08-0.33-0.17-0.49-0.25c0.04-0.83,0.05-1.67,0.05-2.49c0.51,0.4,1.03,0.79,1.56,1.17C46.88,66.78,46.81,67.44,46.75,68.09
		z M55.47,61.79c-0.52,0.44-1.05,0.89-1.57,1.33c-0.18-0.08-0.35-0.15-0.51-0.24c-0.35-0.19-0.68-0.4-1.02-0.61
		c0.24-0.15,0.48-0.31,0.72-0.46C53.87,61.76,54.66,61.75,55.47,61.79z M47.19,63.12c0.03,0.02,0.06,0.04,0.09,0.05
		c-0.06,0.52-0.12,1.04-0.17,1.56c-0.56-0.3-1.12-0.55-1.71-0.77c0-0.04,0-0.09,0-0.13C45.99,63.56,46.59,63.33,47.19,63.12z
		 M44.39,64.27c-0.12,0.83-0.26,1.67-0.37,2.52c-0.43-0.22-0.85-0.45-1.28-0.68c0.01-0.35,0.03-0.7,0.02-1.04
		C43.31,64.79,43.85,64.52,44.39,64.27z M42.09,65.75c-0.1-0.06-0.2-0.11-0.3-0.16c0.14-0.07,0.27-0.15,0.41-0.22
		C42.16,65.49,42.13,65.62,42.09,65.75z M40.86,66.09c0.02,0.02,0.04,0.05,0.07,0.07c0.29,0.2,0.59,0.39,0.88,0.59
		c-0.15,0.56-0.29,1.12-0.42,1.69c-0.37-0.19-0.73-0.38-1.1-0.57c0.09-0.54,0.19-1.09,0.31-1.63
		C40.69,66.19,40.78,66.14,40.86,66.09z M39.32,67.41c-0.14-0.06-0.27-0.13-0.41-0.19c0.19-0.11,0.38-0.22,0.57-0.34
		C39.43,67.05,39.37,67.23,39.32,67.41z M36.66,69.04c-0.14-0.09-0.27-0.17-0.41-0.26c0.16-0.1,0.32-0.19,0.48-0.29
		C36.71,68.68,36.69,68.86,36.66,69.04z M34.39,70.32c-0.14-0.07-0.28-0.14-0.42-0.2c0.17-0.1,0.34-0.2,0.51-0.3
		C34.45,69.99,34.42,70.15,34.39,70.32z M33.36,70.44c0.3,0.19,0.6,0.37,0.9,0.55c-0.05,0.28-0.1,0.55-0.15,0.83
		c-0.05,0.27-0.11,0.54-0.16,0.81h-0.4c-0.13-0.08-0.26-0.17-0.39-0.25c-0.11-0.56-0.39-1.06-0.8-1.41
		C32.7,70.8,33.03,70.62,33.36,70.44z M31.86,71.24c0.21,0.17,0.38,0.39,0.5,0.63c-0.25-0.17-0.49-0.34-0.74-0.52
		C31.71,71.31,31.79,71.27,31.86,71.24z M30.88,71.7c0.32,0.32,0.65,0.64,1,0.93h-1.11c-0.86,0-1.7,0.09-2.52,0.25
		C29.14,72.5,30.02,72.11,30.88,71.7z M20.44,85.64c0-5.7,4.64-10.34,10.34-10.34h0.02c-8.65,2.34-10.04,15.45-10.36,25.83V85.64z
		 M20.83,167.41c-0.16-0.57-0.28-1.15-0.34-1.76c0.13,0.47,0.26,0.94,0.41,1.4C20.88,167.18,20.86,167.29,20.83,167.41z
		 M22.59,168.44c-0.14-0.75-0.27-1.49-0.4-2.24c0.12-0.5,0.24-0.99,0.39-1.48c0.24-0.81,0.54-1.6,0.86-2.38
		c0,0.83-0.01,1.65-0.04,2.48c-0.32,1.76-0.63,3.52-0.92,5.29c0,0.01-0.01,0.02-0.01,0.03c-0.08-0.05-0.16-0.1-0.24-0.15
		c-0.09-0.05-0.16,0.01-0.18,0.09c-0.15-0.24-0.31-0.47-0.44-0.71c0.02-0.12,0.04-0.24,0.05-0.36
		C22.03,169.34,22.71,169.05,22.59,168.44z M24.15,160.74c-0.02,0.12-0.04,0.24-0.07,0.36c-0.01-0.09-0.02-0.18-0.03-0.27
		C24.23,160.28,24.35,159.68,24.15,160.74z M22.15,170.25c0.09,0.05,0.17,0.1,0.26,0.15c-0.02,0.06-0.03,0.13-0.05,0.19
		C22.28,170.48,22.22,170.36,22.15,170.25z M39.21,174.96c0.09-0.42-0.48-0.59-0.72-0.26c-0.57-0.2-0.84-0.53-0.81-1
		c-0.01-0.26-0.02-0.51-0.02-0.77c-0.01-0.56-0.02-1.12-0.03-1.68c-0.01-0.76-0.02-1.52-0.03-2.28c1.02,0.49,2.26,1.03,3.48,1.21
		c-0.08,0.84-0.16,1.68-0.21,2.53c-0.04,0.7-0.23,1.61,0.14,2.26H39.21z M171.83,161.61c-0.13-0.14-0.27-0.29-0.4-0.43
		c-0.31-0.34-0.78,0.15-0.5,0.5c0.3,0.36,0.6,0.72,0.9,1.07v1.87c0,0.45-0.04,0.89-0.09,1.33c-0.05-0.05-0.1-0.11-0.15-0.16
		c-0.72-0.87-1.3-1.84-1.76-2.86c-0.16-0.36-0.78-0.1-0.64,0.27c0.41,1.13,0.95,2.2,1.65,3.18c0.2,0.27,0.41,0.59,0.64,0.89
		c-0.21,0.78-0.49,1.53-0.87,2.23c-0.48-0.41-1-0.8-1.41-1.24c-0.94-1-1.7-2.13-2.35-3.34c-0.24-0.45-0.85-0.05-0.66,0.39
		c0.56,1.33,1.27,2.56,2.16,3.7c0.43,0.55,0.92,1.2,1.49,1.7c-0.4,0.54-0.84,1.04-1.33,1.5c-0.03-0.02-0.05-0.05-0.08-0.07
		c-0.27-0.18-0.54,0.02-0.61,0.28c-1.7-1.88-3-4-3.83-6.42c-0.17-0.5-0.94-0.3-0.8,0.22c0.74,2.66,2,5.09,3.79,7.18
		c-0.6,0.38-1.24,0.69-1.91,0.94c0-0.02,0.01-0.05,0-0.07c-0.45-1.09-1.57-1.77-2.29-2.68c-0.93-1.18-1.61-2.5-2.09-3.92
		c-0.15-0.46-0.84-0.27-0.72,0.2c0.36,1.48,0.93,2.89,1.75,4.18c0.57,0.89,1.33,2.13,2.34,2.61c-0.82,0.21-1.67,0.33-2.55,0.33
		h-0.53c-0.01-0.13-0.04-0.27-0.11-0.43c-0.19-0.41-0.74-0.15-0.77,0.21c0.04-0.44-0.69-1.09-0.93-1.4
		c-0.38-0.5-0.74-1.01-1.09-1.53c-0.7-1.03-1.35-2.1-1.96-3.19c-0.22-0.39-0.78-0.05-0.59,0.35c0.91,1.95,1.93,4.29,3.34,5.99h-2.87
		c-0.59-0.86-1.02-2-1.48-2.82c-0.67-1.18-1.34-2.36-2.01-3.54c-0.01-0.01-0.01-0.01-0.02-0.02c0.07-0.03,0.14-0.05,0.2-0.09
		c0.53-0.32,0.53-1.08,0-1.4c-0.9-0.55-2.37-0.05-3.35,0.1c-0.6,0.09-0.6,1.11,0,1.21c0.71,0.11,1.66,0.39,2.48,0.34
		c-0.02,0.08-0.02,0.17,0.03,0.26c0.78,1.64,1.54,3.29,2.33,4.92c0.15,0.31,0.29,0.68,0.45,1.05h-2.65
		c-0.32-0.66-0.73-1.28-1.07-1.93c-0.57-1.07-1.08-2.17-1.55-3.29c-0.13-0.32-0.66-0.2-0.54,0.15c0.55,1.6,1.14,3.55,2.1,5.07h-3.05
		c0-0.02,0.01-0.05,0.01-0.07c-0.12-0.8-0.74-1.47-1.11-2.18c-0.46-0.87-0.82-1.78-1.12-2.72c-0.14-0.46-0.85-0.27-0.72,0.2
		c0.26,0.97,0.58,1.9,1,2.81c0.31,0.67,0.63,1.46,1.2,1.96h-2.84c0.01-0.02,0.02-0.04,0.02-0.07c-0.01-0.67-0.54-1.22-0.84-1.8
		c-0.4-0.77-0.73-1.57-0.99-2.39c-0.11-0.34-0.63-0.2-0.54,0.15c0.2,0.84,0.45,1.66,0.79,2.46c0.23,0.54,0.47,1.26,0.94,1.65h-2.64
		c0-0.01,0-0.02,0-0.02c-0.01-0.59-0.54-0.98-0.85-1.44c-0.38-0.57-0.67-1.18-0.87-1.83c-0.14-0.45-0.8-0.27-0.71,0.2
		c0.15,0.74,0.4,1.45,0.76,2.11c0.18,0.34,0.39,0.73,0.68,0.99h-2.84c-0.13-0.16-0.27-0.32-0.37-0.48
		c-0.37-0.56-0.69-1.16-0.94-1.79c-0.18-0.44-0.87-0.27-0.72,0.2c0.21,0.68,0.48,1.34,0.82,1.97c0.02,0.03,0.04,0.07,0.06,0.11
		h-2.33c-0.05-0.1-0.11-0.21-0.16-0.31c-0.34-0.68-0.68-1.37-1.02-2.05c-0.17-0.34-0.76-0.1-0.61,0.26c0.28,0.7,0.56,1.41,0.84,2.11
		h-2.58c-0.02-0.04-0.05-0.08-0.07-0.12c-0.31-0.52-0.62-1.05-0.94-1.57c-0.24-0.4-0.82-0.05-0.62,0.36
		c0.22,0.44,0.43,0.88,0.65,1.33h-3.21c-0.28-0.4-0.52-0.84-0.7-1.29c-0.17-0.46-0.85-0.28-0.74,0.2c0.08,0.37,0.2,0.74,0.34,1.09
		h-1.53c-0.27-0.57-0.55-1.14-0.82-1.71c-0.2-0.41-0.91-0.12-0.74,0.31c0.18,0.47,0.37,0.93,0.55,1.4h-2.01
		c-0.17-0.43-0.36-0.85-0.52-1.26c-0.14-0.35-0.66-0.22-0.57,0.16c0.08,0.35,0.16,0.72,0.24,1.1h-1.22
		c-0.18-0.49-0.42-0.94-0.74-1.37c-0.25-0.33-0.75-0.06-0.57,0.33c0.15,0.33,0.28,0.68,0.38,1.04h-1.1
		c-0.02-0.13-0.04-0.26-0.06-0.39c-0.09-0.7-0.18-1.41-0.27-2.11c-0.07-0.51-0.86-0.53-0.81,0c0.07,0.7,0.13,1.41,0.2,2.11
		c0.01,0.13,0.02,0.26,0.03,0.39h-52.9c-0.01-0.02,0-0.05-0.01-0.07c-0.15-0.26-0.37-0.48-0.56-0.71c-0.29-0.34-0.82,0.2-0.48,0.48
		c0.12,0.1,0.23,0.2,0.34,0.3h-3.97c-0.22-0.43-0.43-0.85-0.65-1.28c-0.21-0.41-0.78-0.05-0.6,0.35c0.14,0.31,0.27,0.62,0.41,0.93
		h-2.34c-0.23-1.41-0.7-2.85-1.01-4.18c-0.08-0.35-0.58-0.19-0.52,0.14c0.2,1.28,0.29,2.71,0.57,4.04h-3.51
		c-0.2-0.42-0.4-0.85-0.52-1.31c-0.29-1.09-0.32-2.19-0.12-3.3c0.01-0.07-0.01-0.13-0.04-0.18c0.69,0.06,1.38,0.13,2.07,0.19
		c0.37,0.03,0.8-0.3,0.87-0.67c0.03-0.17,0.03-0.31,0-0.48c-0.07-0.36-0.5-0.7-0.87-0.67c-0.92,0.09-1.85,0.17-2.77,0.26
		c-0.83,0.08-0.83,1.22,0,1.3c0.09,0.01,0.18,0.02,0.27,0.03c-0.02,0.03-0.05,0.04-0.05,0.07c-0.34,1.41-0.44,3.25,0.09,4.76h-3.07
		c-0.24-0.6-0.51-1.19-0.64-1.84c-0.23-1.11-0.13-2.22,0.19-3.3c0.13-0.43-0.5-0.58-0.66-0.18c-0.59,1.53-0.82,3.69-0.1,5.32h-1.92
		c0.08-0.2,0.08-0.44-0.05-0.71c-0.17-0.35-0.7-0.17-0.7,0.19c0-0.43-0.22-1.04-0.24-1.52c-0.01-0.43-0.02-0.86-0.04-1.28
		c-0.03-0.48-0.07-0.95-0.1-1.42c0.62,0.03,1.23-0.04,1.79-0.3c0.33-0.15,0.32-0.71,0-0.86c-0.83-0.4-1.65-0.4-2.56-0.5
		c-1.04-0.12-2.05-0.31-3.06-0.6c-0.07-0.02-0.14-0.02-0.21-0.01c0-0.02,0-0.04,0-0.06c-0.01-0.49-0.75-0.49-0.77,0
		c-0.06,1.49-0.12,2.99-0.18,4.48c-0.03,0.81-0.21,1.82,0.15,2.59h-1.97c0.61-2.63,0.34-5.59,0.41-8.27c0.01-0.54-0.8-0.53-0.84,0
		c-0.2,2.68-0.74,5.59-0.39,8.27h-3.23c-1.83,0-3.54-0.49-5.03-1.33c0.09-0.62,0.16-1.25,0.21-1.88c0.07-0.47,0.14-0.94,0.21-1.41
		c0.02-0.12-0.03-0.22-0.1-0.29c0.12-2.43,0.08-4.89,0.07-7.26c0-0.25-0.42-0.33-0.46-0.06c-0.48,3.28-1.07,6.73-1.17,10.09
		c-0.17-0.13-0.34-0.26-0.5-0.4c0.48-2.44,0.52-5.08,0.38-7.66c0.25-1.88,0.48-3.76,0.67-5.65c0.03-0.27-0.39-0.37-0.51-0.14
		c-0.2,0.39-0.38,0.77-0.57,1.15c-0.01-0.11-0.02-0.23-0.04-0.35c-0.04-0.33-0.54-0.35-0.53,0c0.01,0.49,0.01,0.98,0.01,1.47
		c-0.33,0.7-0.66,1.4-0.96,2.1c0.32-2.42,0.63-4.84,1.01-7.25c0.04-0.24-0.32-0.34-0.36-0.1c-0.42,2.44-0.93,4.85-1.43,7.27
		c-0.14-0.82-0.27-1.64-0.39-2.46c0.03-0.23,0.05-0.48,0.07-0.72c0.86-3.88,1.39-7.86,1.56-11.8c0.01-0.26-0.43-0.33-0.47-0.06
		c-0.45,3.08-1,6.1-1.65,9.11c-0.13-1.04-0.26-2.08-0.36-3.13v-0.7c0.74-3.46,1.08-7.09,1.65-10.51c0.05-0.3-0.41-0.44-0.47-0.13
		c-0.35,1.68-0.78,3.4-1.18,5.12v-7.67c0.09-0.71,0.18-1.42,0.28-2.11c0.03-0.18-0.17-0.28-0.28-0.22v-10.37
		c0.15-2.64,0.31-5.29,0.46-7.93c0.45-8.18,0.83-16.37,1.3-24.55c0.47-8.05,2.32-20.36,13.19-19.6c0.17,0.01,0.24-0.11,0.24-0.23
		h87.38c0,0.23,0.02,0.46,0.07,0.69c-26.26,0.16-52.51,0.34-78.76,1.35c-0.46,0.02-0.46,0.7,0,0.71
		c22.85,0.61,45.69,0.61,68.55,0.49c11.28-0.06,22.55-0.12,33.83-0.18c5.35-0.03,11.1-0.6,16.38,0.48c3.2,0.65,6.87,2.78,8.68,5.65
		c0.04,0.38,0.07,0.76,0.07,1.16v6.02c-0.04,0.07-0.07,0.13-0.11,0.2c-0.1,0.15-0.01,0.28,0.11,0.33v14.99
		c-3.52,0.23-7.56,1.33-10.87,2.29c-0.03-0.18-0.06-0.37-0.09-0.56c-0.12-0.72-1.33-0.72-1.45,0c-0.06,0.36-0.12,0.71-0.13,1.05
		c-1.48,0.43-2.73,0.79-3.6,0.94c-6.63,1.18-13.47,1.3-19.94,3.28c-4.17,1.28-9.72,3.38-11.05,8.01c-1.26,4.4-0.1,11.9,2.49,15.63
		c3.11,4.49,9.36,3.55,14.08,3.37c7.04-0.27,14.06-0.86,21.05-1.78c0,0.01,0.01,0.02,0.01,0.03c0.17,0.46,0.29,0.82,0.24,1.32
		c-0.06,0.65,0.86,0.67,1.06,0.14c0.2-0.53,0.39-1.12,0.37-1.68c0,0,0-0.01,0-0.01c2.5-0.33,5.28-0.55,7.83-1.26V161.61z"/>
	<path class="st0" d="M141.44,119.78c-2.4-0.38-5.2-0.3-6.57,2.06c-1.08,1.86-1.2,4.96-0.58,7c0.38,1.25,1.44,2.32,2.62,2.42
		c0.25,0.14,0.52,0.27,0.8,0.37c4.87,1.78,9.53-2.86,8.47-7.75C145.64,121.39,143.86,120.16,141.44,119.78z M139.19,129.97
		c-0.53-0.08-1.03-0.26-1.47-0.51c0.2-1.2,0.22-2.45,0.32-3.67c0.02-0.19-0.31-0.24-0.34-0.05c-0.15,1.12-0.38,2.26-0.46,3.39
		c-0.34-0.28-0.63-0.62-0.85-1.02c0,0,0-0.01,0-0.01c0.12-0.54,0.12-1.12,0.17-1.66c0.07-0.78,0.14-1.55,0.21-2.33
		c0.02-0.21-0.19-0.27-0.34-0.2c0.01-0.06,0.02-0.12,0.04-0.17c0.08-0.08,0.17-0.16,0.27-0.2c0.05-0.02,0.1-0.07,0.1-0.13
		c0-0.06-0.01-0.11-0.01-0.17c0-0.07-0.04-0.11-0.07-0.17c0.02-0.04,0.03-0.08,0.05-0.12c0.92-1.43,2.89-1.2,4.35-1.02
		c1.79,0.22,2.87,1.05,3.06,2.9C144.52,127.75,142.19,130.42,139.19,129.97z"/>
	<path class="st0" d="M148.14,133.12c0.03-0.38-0.53-0.36-0.58,0c-0.16,1.29-0.48,3.31,0.19,4.5c0.11,0.2,0.47,0.18,0.51-0.07
		c0.12-0.69-0.09-1.38-0.14-2.08C148.07,134.69,148.08,133.9,148.14,133.12z"/>
	<path class="st0" d="M27.05,153.1c-0.08-0.93-0.14-1.87-0.25-2.81c-0.09-0.76-0.51-1.75-1.45-1.62c-1.97,0.27-0.27,3.67,0.06,4.65
		C25.69,154.16,27.13,154.09,27.05,153.1z"/>
	<path class="st0" d="M25.62,144.26c0.82-1,0.9-2.45,0.34-3.6c-0.26-0.53-0.99-0.72-1.51-0.49c-0.56,0.25-0.83,0.82-0.7,1.42
		c0.09,0.41,0.27,0.8,0.37,1.21c0.09,0.39,0.21,0.78,0.35,1.15C24.63,144.39,25.26,144.7,25.62,144.26z"/>
	<path class="st0" d="M25.5,133.78c-0.04-0.47-0.02-0.93,0.04-1.4c0.08-0.66,0.03-1.11-0.36-1.67c-0.31-0.44-0.82-0.5-1.24-0.16
		c-1.19,0.98-0.49,2.55,0.29,3.57C24.59,134.59,25.56,134.54,25.5,133.78z"/>
	<path class="st0" d="M24.87,127.13c0.69-0.89,0.76-2.37-0.06-3.21c-0.33-0.34-0.87-0.43-1.29-0.25c-0.47,0.2-0.67,0.59-0.73,1.08
		c-0.05,0.41,0.11,0.77,0.21,1.15c0.09,0.36,0.16,0.69,0.34,1.02C23.62,127.43,24.49,127.62,24.87,127.13z"/>
	<path class="st0" d="M24.49,120.52c0.7-0.85,0.84-1.85,0.97-2.91c0.15-1.18,0.52-2.22-0.26-3.22c-0.35-0.45-1.07-0.33-1.44,0
		c-0.83,0.76-0.63,1.99-0.66,3.02c-0.03,1.02-0.06,2.07,0.47,2.98C23.75,120.7,24.25,120.81,24.49,120.52z"/>
	<path class="st0" d="M25.32,108.59c0.36-1.02,0.49-2.02,0.68-3.09c0.18-1.01,0.6-2.01,0.61-3.04c0.01-1.08-1.45-1.43-1.99-0.54
		c-0.61,1-0.68,2.35-0.77,3.5c-0.09,1.19,0.04,2.19,0.52,3.29C24.56,109.16,25.18,108.97,25.32,108.59z"/>
	<path class="st0" d="M26.84,96.17c0.55-0.53,0.82-1.2,1.15-1.87c0.36-0.73,0.79-1.4,1.21-2.1c0.8-1.35-1.2-2.45-2.07-1.21
		c-0.87,1.24-1.84,3.43-1.22,4.93C26.07,96.3,26.51,96.48,26.84,96.17z"/>
	<path class="st0" d="M38.36,86.55c-2.73-1.09-6.15,0.4-8.24,2.21c-0.42,0.37,0.03,1,0.52,0.89c1.28-0.3,2.57-0.64,3.86-0.84
		c1.33-0.2,2.59-0.24,3.86-0.73C39.12,87.79,39.11,86.85,38.36,86.55z"/>
	<path class="st0" d="M43.69,85.63c-0.48,0.14-0.48,0.83,0,0.96c2.05,0.58,4.83,1.22,6.81,0.1c0.44-0.25,0.44-0.91,0-1.16
		C48.52,84.41,45.74,85.05,43.69,85.63z"/>
	<path class="st0" d="M60.01,84.75c-2.07-0.52-3.94-0.1-5.96,0.33c-0.37,0.08-0.37,0.66,0,0.74c2.02,0.43,3.89,0.85,5.96,0.33
		C60.71,85.97,60.71,84.92,60.01,84.75z"/>
	<path class="st0" d="M69.46,84.59c-1.2-0.9-2.75-0.74-4.13-0.37c-0.67,0.18-0.51,1.16,0.16,1.18c1.23,0.04,2.44,0.39,3.67,0.28
		C69.76,85.62,69.93,84.94,69.46,84.59z"/>
	<path class="st0" d="M81,84.13c-1.78-0.63-3.69-0.28-5.51-0.06c-0.91,0.11-0.91,1.31,0,1.42c1.82,0.22,3.74,0.56,5.51-0.06
		C81.63,85.2,81.64,84.36,81,84.13z"/>
	<path class="st0" d="M89.17,83.85c-0.96-0.47-1.86-0.26-2.86-0.05c-0.64,0.13-0.64,1.16,0,1.3c1,0.21,1.9,0.42,2.86-0.05
		C89.62,84.82,89.62,84.07,89.17,83.85z"/>
	<path class="st0" d="M100.82,84.12c-1.18-0.68-2.66-0.6-3.81,0.1c-0.23,0.14-0.18,0.48,0.07,0.56c1.1,0.32,2.31,0.54,3.45,0.44
		C101.07,85.16,101.36,84.43,100.82,84.12z"/>
	<path class="st0" d="M108.65,84.16c-0.62,0.09-0.62,1.16,0,1.25c1.21,0.17,2.73,0.63,3.83-0.07c0.42-0.26,0.42-0.86,0-1.12
		C111.37,83.53,109.86,83.99,108.65,84.16z"/>
	<path class="st0" d="M120.83,84.19c-0.47-0.25-0.88-0.34-1.41-0.27c-0.48,0.06-0.95,0.18-1.42,0.28c-0.57,0.13-0.57,1.02,0,1.15
		c0.47,0.11,0.94,0.22,1.42,0.28c0.53,0.07,0.94-0.02,1.41-0.27C121.27,85.14,121.27,84.43,120.83,84.19z"/>
	<path class="st0" d="M125.46,85.26c0.6-0.04,1.19,0.01,1.78,0.03c0.62,0.02,1.18,0.15,1.78-0.05c0.68-0.24,0.75-1.05,0.19-1.46
		c-1.17-0.84-2.92-0.18-4.04,0.43C124.7,84.48,124.9,85.3,125.46,85.26z"/>
	<path class="st0" d="M135.63,85.13c0.76,0.18,1.52,0.25,2.3,0.31c0.75,0.06,1.6,0.23,2.14-0.4c0.31-0.36,0.31-0.81,0-1.17
		c-0.54-0.63-1.39-0.47-2.14-0.4c-0.78,0.06-1.54,0.14-2.3,0.31C134.96,83.92,134.96,84.97,135.63,85.13z"/>
	<path class="st0" d="M145.79,85.68c0.7,0.01,1.41,0.04,2.1,0.16c0.68,0.12,1.31,0.41,2.01,0.44c0.81,0.04,1.39-1.16,0.7-1.7
		c-1.4-1.11-3.63-0.93-5.15-0.14C144.85,84.75,145.16,85.66,145.79,85.68z"/>
	<path class="st0" d="M153.68,85.98c1.16,0.42,2.18,1.18,3.33,1.65c1.13,0.46,1.92-1.43,0.83-1.98c-1.3-0.66-2.61-0.65-4.02-0.68
		C153.2,84.95,153.15,85.79,153.68,85.98z"/>
	<path class="st0" d="M159.3,92.43c0.1,0.37,0.12,0.74,0.22,1.11c0.3,1.06,1.81,0.81,1.88-0.25c0.06-1.08-0.68-2.21-1.52-2.82
		c-0.64-0.46-1.26,0.4-0.98,0.98C159.05,91.78,159.21,92.09,159.3,92.43z"/>
	<path class="st0" d="M159.65,99.79c0.02,0.71-0.03,1.41-0.16,2.11c-0.13,0.73-0.36,1.33,0.04,2.02c0.22,0.38,0.79,0.57,1.18,0.31
		c1.36-0.91,0.85-3.29,0.52-4.65C161.01,98.69,159.62,98.88,159.65,99.79z"/>
	<path class="st0" d="M27.92,161.76c0.45-0.19,0.58-1.11,0.45-1.52c-0.11-0.34-0.3-0.65-0.41-0.99c-0.19-0.63-0.22-1.27-0.37-1.91
		c-0.09-0.38-0.59-0.4-0.79-0.1c-0.72,1.07-0.64,3.1,0.12,4.12C27.14,161.64,27.54,161.92,27.92,161.76z"/>
	<path class="st0" d="M62.22,168.89c-1.03,0.05-2.05,0.05-3.08,0.13c-0.44,0.03-0.73,0.7-0.25,0.92c1,0.46,2.03,0.72,3.12,0.83
		c1.05,0.11,2.21,0.32,3.03-0.46c0.38-0.37,0.25-0.95-0.16-1.23C64.07,168.54,63.14,168.85,62.22,168.89z"/>
	<path class="st0" d="M74.3,168.47c-1.27,0.09-2.44,0.3-3.63,0.76c-0.56,0.21-0.52,1.11,0.15,1.1c1.16-0.01,2.32-0.05,3.48-0.02
		c0.93,0.02,1.93,0.35,2.61-0.42c0.17-0.2,0.24-0.49,0.09-0.73C76.41,168.22,75.3,168.41,74.3,168.47z"/>
	<path class="st0" d="M85.18,168.21c-0.98,0.06-1.88,0.17-2.83,0.42c-0.48,0.13-0.48,0.84,0,0.96c0.95,0.25,1.85,0.36,2.83,0.42
		c0.9,0.06,1.86,0.2,2.65-0.32c0.44-0.29,0.44-0.89,0-1.17C87.04,168.01,86.08,168.15,85.18,168.21z"/>
	<path class="st0" d="M96.98,168.56c-1.47-0.43-2.96-0.39-4.48-0.38c-0.64,0-0.67,0.83-0.14,1.04c1.5,0.62,3.03,0.94,4.62,0.46
		C97.53,169.53,97.54,168.73,96.98,168.56z"/>
	<path class="st0" d="M105.99,168.85c-1.27-0.37-2.52-0.25-3.82-0.25c-0.46,0-0.63,0.63-0.23,0.86c1.24,0.74,2.65,1.17,4.05,0.6
		C106.53,169.83,106.63,169.04,105.99,168.85z"/>
	<path class="st0" d="M113.49,168.86c-0.75,0.05-0.75,1.12,0,1.17c1.18,0.08,3.19,0.54,4.22-0.21c0.27-0.2,0.27-0.54,0-0.74
		C116.68,168.32,114.66,168.78,113.49,168.86z"/>
	<path class="st0" d="M122.82,168.91c-0.69,0.07-0.69,1.01,0,1.08c1.36,0.13,3.27,0.5,4.53-0.2c0.25-0.14,0.25-0.53,0-0.67
		C126.09,168.41,124.18,168.78,122.82,168.91z"/>
	<path class="st0" d="M135.98,168.85c-2.05-0.57-4.25-0.31-6.31,0.08c-0.51,0.1-0.51,0.94,0,1.04c2.06,0.38,4.25,0.64,6.31,0.08
		C136.57,169.88,136.57,169.01,135.98,168.85z"/>
	<path class="st0" d="M144.25,168.43c-0.9-0.36-1.82-0.19-2.76-0.11c-0.59,0.05-0.59,0.87,0,0.92c0.94,0.08,1.86,0.25,2.76-0.11
		C144.6,169,144.6,168.56,144.25,168.43z"/>
	<path class="st0" d="M158.68,163.93c-0.76,0.2-1.27,0.97-2.03,1.24c-0.76,0.28-0.47,1.39,0.34,1.22c0.95-0.2,2.34-0.81,2.36-1.95
		C159.36,164.1,159.01,163.85,158.68,163.93z"/>
	<path class="st0" d="M161.35,157.92c-0.72,0.85-0.54,2.17-0.58,3.21c-0.02,0.44,0.66,0.65,0.86,0.23c0.45-0.93,1.24-2.03,1.01-3.11
		C162.53,157.72,161.72,157.48,161.35,157.92z"/>
	<path class="st0" d="M161.63,149.78c-0.57,0.83-0.37,2.04-0.4,3.01c-0.02,0.72,1.11,0.89,1.27,0.17c0.21-0.94,0.71-2.08,0.37-3.02
		C162.67,149.38,161.97,149.28,161.63,149.78z"/>
	<path class="st0" d="M161.63,142.68c-0.12,0.91,0.26,1.87,0.37,2.77c0.08,0.62,0.89,0.62,0.97,0c0.11-0.9,0.49-1.87,0.37-2.77
		C163.2,141.58,161.78,141.58,161.63,142.68z"/>
</g>
</svg>
