<?xml version="1.0" standalone="no"?>
<!DOCTYPE svg PUBLIC "-//W3C//DTD SVG 20010904//EN"
 "http://www.w3.org/TR/2001/REC-SVG-20010904/DTD/svg10.dtd">
<svg version="1.0" xmlns="http://www.w3.org/2000/svg"
 width="200.000000pt" height="200.000000pt" viewBox="0 0 200.000000 200.000000"
 preserveAspectRatio="xMidYMid meet">
<metadata>
Created by potrace 1.14, written by Peter Selinger 2001-2017
</metadata>
<g transform="translate(0.000000,200.000000) scale(0.100000,-0.100000)"
fill="#000000" stroke="none">
<path d="M0 1000 l0 -1000 1000 0 1000 0 0 1000 0 1000 -1000 0 -1000 0 0
-1000z m1090 493 c0 -5 -15 -9 -33 -10 -26 -1 -28 0 -12 7 26 11 45 12 45 3z
m-95 -45 c29 -13 34 -48 10 -72 -14 -14 -9 -17 47 -35 35 -11 52 -20 40 -20
-13 -1 -55 9 -94 20 -48 15 -85 20 -120 17 -32 -4 -45 -2 -35 4 9 4 34 9 56
11 37 2 39 3 34 29 -5 27 10 58 28 58 4 0 20 -5 34 -12z m45 -193 c61 -19 128
-35 148 -36 l37 -1 -30 -9 c-35 -10 -61 -6 -168 27 -92 28 -196 32 -253 8 -24
-10 -34 -11 -27 -4 17 18 112 49 150 50 17 0 82 -16 143 -35z m430 -177 c-11
-62 -23 -121 -27 -132 -3 -11 -1 -16 5 -12 6 3 4 -6 -4 -22 -7 -16 -15 -45
-16 -65 -2 -28 -7 -37 -21 -37 -13 0 -17 5 -13 18 15 52 66 347 62 358 -5 13
27 25 32 12 2 -4 -6 -58 -18 -120z m340 63 c0 -35 -17 -69 -59 -121 -29 -36
-26 -21 4 20 33 45 49 104 35 130 -9 16 -8 18 5 14 10 -4 15 -19 15 -43z
m-1503 -1 c-46 -40 -78 -117 -84 -204 -5 -63 -3 -74 17 -98 12 -16 29 -28 37
-28 9 0 13 -3 10 -6 -4 -4 -20 -1 -37 6 -91 38 -76 225 25 319 25 23 49 41 55
41 6 0 -5 -13 -23 -30z m727 -5 c56 -19 128 -41 161 -49 l60 -14 -61 -1 c-45
-1 -90 8 -170 35 -99 33 -117 36 -194 32 -58 -3 -101 -11 -135 -26 -47 -21
-48 -21 -25 -2 45 36 121 59 194 59 54 1 91 -7 170 -34z m699 -17 c-8 -29 -16
-75 -18 -103 -2 -27 -8 -62 -13 -76 -6 -14 -13 -46 -17 -71 -6 -40 -4 -47 12
-51 10 -3 2 -5 -18 -6 l-35 -1 30 153 c26 127 53 207 70 207 2 0 -3 -24 -11
-52z m-93 -53 c0 -8 -7 -15 -15 -15 -16 0 -20 12 -8 23 11 12 23 8 23 -8z
m-1096 -60 c14 -14 18 -14 41 1 16 10 34 14 50 10 29 -8 31 -28 13 -136 -9
-53 -16 -70 -28 -70 -15 0 -15 7 2 87 20 90 18 113 -6 113 -34 0 -56 -35 -72
-117 -11 -55 -21 -83 -30 -83 -18 0 -17 4 2 94 19 83 14 111 -16 103 -11 -3
-18 -1 -14 4 8 14 41 11 58 -6z m276 -5 c11 -11 20 -33 20 -50 l0 -30 -70 0
-70 0 0 -32 c0 -34 24 -68 49 -69 9 0 11 -3 5 -5 -22 -9 -61 15 -73 44 -17 42
1 103 40 136 37 31 72 33 99 6z m174 14 c19 -7 20 -25 4 -126 -10 -65 -16 -78
-31 -78 -13 0 -17 5 -13 18 3 9 13 48 21 87 16 69 16 70 -5 87 -23 19 -10 25
24 12z m160 -10 c19 -18 19 -22 5 -119 -9 -62 -15 -75 -28 -72 -9 2 -14 10
-12 18 2 8 9 47 14 88 9 67 8 76 -9 88 -15 11 -16 13 -2 13 9 0 24 -7 32 -16z
m401 6 c-3 -5 -10 -10 -16 -10 -5 0 -9 5 -9 10 0 6 7 10 16 10 8 0 12 -4 9
-10z m-1094 -20 c-2 -8 -10 -37 -18 -65 -7 -27 -14 -65 -16 -82 -1 -24 -7 -33
-20 -33 -13 0 -16 6 -12 23 28 123 35 159 29 168 -4 7 3 9 17 7 15 -2 23 -9
20 -18z m460 -6 c-10 -13 -24 -57 -31 -98 -10 -60 -16 -76 -30 -76 -16 0 -16
4 -4 52 8 28 17 73 20 100 6 45 8 48 34 46 28 -2 28 -3 11 -24z m344 4 c-19
-79 -33 -163 -29 -170 3 -4 -4 -8 -16 -8 -15 0 -20 5 -17 18 3 9 11 49 17 87
16 93 17 95 35 95 11 0 14 -7 10 -22z m105 10 c0 -7 -7 -48 -15 -91 -8 -44
-13 -83 -9 -88 3 -5 -4 -9 -16 -9 -23 0 -23 2 -3 88 4 16 1 22 -13 23 -16 0
-15 2 4 9 17 7 22 17 22 45 0 24 4 35 15 35 8 0 15 -6 15 -12z m253 -55 c-7
-38 -14 -83 -15 -100 -1 -25 -6 -33 -20 -33 -14 0 -17 5 -13 23 19 86 25 116
25 145 0 25 4 32 19 32 18 0 18 -3 4 -67z m-112 34 c-8 -10 -6 -31 8 -80 11
-36 22 -71 26 -77 3 -5 -2 -10 -13 -10 -16 0 -23 11 -32 53 -7 28 -16 59 -21
67 -5 10 0 23 13 38 23 24 38 31 19 9z m270 -18 c16 -16 20 -28 15 -53 -7 -35
-35 -77 -56 -84 -8 -3 -5 6 8 23 31 39 31 108 0 123 -18 8 -19 11 -5 11 9 1
26 -8 38 -20z m-698 -59 c-40 -24 -46 -66 -10 -80 21 -8 21 -9 1 -9 -62 -2
-71 68 -11 94 47 21 57 18 20 -5z m-713 -15 c0 -8 -7 -15 -15 -15 -16 0 -20
12 -8 23 11 12 23 8 23 -8z m664 -161 c219 -36 377 -44 466 -23 25 5 72 23
104 40 33 16 61 27 63 25 2 -2 -18 -17 -44 -34 -116 -75 -274 -81 -590 -25
-176 31 -231 37 -360 37 -83 1 -150 3 -148 5 8 8 165 17 230 13 39 -2 164 -19
279 -38z m3 -116 c-3 -8 -6 -5 -6 6 -1 11 2 17 5 13 3 -3 4 -12 1 -19z"/>
<path d="M731 984 c-34 -43 -28 -54 29 -54 48 0 50 1 50 28 0 55 -45 69 -79
26z"/>
</g>
</svg>
